<?xml version="1.0" encoding="utf-8"?>
<!-- Generator: Adobe Illustrator 27.5.0, SVG Export Plug-In . SVG Version: 6.00 Build 0)  -->
<svg version="1.1" xmlns="http://www.w3.org/2000/svg" xmlns:xlink="http://www.w3.org/1999/xlink" x="0px" y="0px"
	 viewBox="0 0 215.4 235.8" style="enable-background:new 0 0 215.4 235.8;" xml:space="preserve">
<style type="text/css">
	.st0{display:none;}
	.st1{display:inline;}
	.st2{fill:#FFFFFF;stroke:#AA0202;stroke-width:2;stroke-linecap:round;stroke-linejoin:round;stroke-miterlimit:10;}
	.st3{fill:#AA0202;}
	.st4{fill:#AA0202;stroke:#AA0202;stroke-width:2;stroke-miterlimit:10;}
</style>
<g id="Camada_1" class="st0">
	
		<image style="display:inline;overflow:visible;" width="1046" height="574" xlink:href="../../../../../../Desktop/Captura de Tela 2023-06-15 às 02.04.37.png"  transform="matrix(0.326 -0.3791 0.3791 0.326 394.7793 488.2196)">
	</image>
</g>
<g id="LOGO" class="st0">
	<g class="st1">
		<polyline class="st2" points="326.7,299.4 301,338.8 340.9,322.9 381.1,336.9 354,299.4 		"/>
		<g>
			<polygon class="st2" points="326.4,235.5 270.1,266.8 270.1,280.2 326.4,265.4 			"/>
			<path class="st2" d="M306.5,246.3c0,0,1.6-13.7-5.7-13.4c-7.4,0.2-6.3,20.2-6.3,20.2L306.5,246.3z"/>
			<g>
				<path class="st2" d="M282.6,276.9c0,0-2.6,12.2,2.5,12.1c5.1-0.1,4.4-13.9,4.4-13.9L282.6,276.9z"/>
				<path class="st2" d="M298.4,272.9c0,0-2.6,12.2,2.5,12.1c5.1-0.1,4.4-13.9,4.4-13.9L298.4,272.9z"/>
				<path class="st2" d="M312.4,269.4c0,0-2.6,12.2,2.5,12.1c5.1-0.1,4.4-13.9,4.4-13.9L312.4,269.4z"/>
			</g>
		</g>
		<g>
			<polygon class="st2" points="354.5,235.5 410.8,266.8 410.8,280.2 354.5,265.4 			"/>
			<path class="st2" d="M374.4,246.3c0,0-1.6-13.7,5.7-13.4c7.4,0.2,6.3,20.2,6.3,20.2L374.4,246.3z"/>
			<g>
				<path class="st2" d="M398,276.9c0,0,2.6,12.2-2.5,12.1c-5.1-0.1-4.4-13.9-4.4-13.9L398,276.9z"/>
				<path class="st2" d="M382.2,272.9c0,0,2.6,12.2-2.5,12.1c-5.1-0.1-4.4-13.9-4.4-13.9L382.2,272.9z"/>
				<path class="st2" d="M368.2,269.4c0,0,2.6,12.2-2.5,12.1c-5.1-0.1-4.4-13.9-4.4-13.9L368.2,269.4z"/>
			</g>
		</g>
		<path class="st2" d="M340.3,312L340.3,312c-7.6,0-13.8-4.2-13.8-11.8v-86.9c0-7.6,6.2-19.8,13.8-19.8h0c7.6,0,13.8,12.2,13.8,19.8
			v86.9C354.1,307.9,347.9,312,340.3,312z"/>
		<text transform="matrix(1 0 0 1 420.0252 303.8323)" style="font-family:'BebasNeueBold'; font-size:79px;">VIAJA PT</text>
		<g>
			<path class="st3" d="M340.1,218.5c1.4,25.1,1.4,50.2,0,75.3C338.7,268.7,338.7,243.6,340.1,218.5L340.1,218.5z"/>
		</g>
	</g>
</g>
<g id="Contorno" class="st0">
	<g class="st1">
		<g>
			<path class="st3" d="M29.2,152.5c-0.4,0-0.7-0.2-0.9-0.5c-0.3-0.4-0.4-1-0.1-1.4l25.6-39.1c0.4-0.6,1.1-0.7,1.7-0.4
				c0.6,0.4,0.7,1.1,0.4,1.7l-23.5,36l37.3-14.5c0.3-0.1,0.6-0.1,0.9,0l34.4,13.8l-24-35.3c-0.4-0.6-0.2-1.3,0.3-1.7
				c0.6-0.4,1.3-0.2,1.7,0.3l26.3,38.6c0.3,0.4,0.3,1-0.1,1.4c-0.3,0.4-0.9,0.6-1.4,0.4l-37.7-15.1l-40.4,15.7
				C29.5,152.5,29.4,152.5,29.2,152.5z"/>
		</g>
		<g>
			<g>
				<path class="st3" d="M-1.5,94.3c-0.3,0-0.5-0.1-0.7-0.3c-0.3-0.2-0.5-0.6-0.5-1V79.7c0-0.4,0.2-0.8,0.6-1.1l56-31.1
					c0.4-0.2,0.8-0.2,1.2,0c0.4,0.2,0.6,0.6,0.6,1.1v29.7c0,0.6-0.4,1-0.9,1.2l-56,14.8C-1.3,94.2-1.4,94.3-1.5,94.3z M-0.3,80.4
					v11.1l53.5-14.1V50.6L-0.3,80.4z"/>
			</g>
			<g>
				<path class="st3" d="M22.7,67.2c-0.2,0-0.4-0.1-0.6-0.2c-0.4-0.2-0.6-0.6-0.6-1c0-0.6-0.7-14.7,3.7-19.6c1-1.1,2.3-1.7,3.7-1.8
					c1.8-0.1,3.3,0.6,4.5,1.8c3.5,3.8,2.5,12.5,2.5,12.9c0,0.4-0.3,0.7-0.6,0.9l-12,6.7C23.1,67.2,22.9,67.2,22.7,67.2z M29.1,47.2
					c0,0-0.1,0-0.1,0c-0.7,0-1.4,0.3-2,1c-2.7,2.9-3.2,11.1-3.1,15.8l9.7-5.4c0.2-2.6,0.2-8-1.9-10.3C31,47.5,30.2,47.2,29.1,47.2z
					 M34.7,59.3L34.7,59.3L34.7,59.3z"/>
			</g>
			<g>
				<path class="st3" d="M13.3,103c-1.2,0-2.1-0.5-2.9-1.3c-2.6-3.2-1-11.2-0.8-12.1c0.1-0.4,0.4-0.8,0.9-0.9l6.9-1.9
					c0.4-0.1,0.7,0,1,0.2c0.3,0.2,0.5,0.6,0.5,0.9c0.1,1.1,0.4,10.4-2.7,13.8C15.5,102.5,14.5,103,13.3,103
					C13.4,103,13.4,103,13.3,103z M11.9,90.7c-0.6,3.1-0.9,7.8,0.4,9.4c0.3,0.3,0.6,0.5,1,0.5c0.3,0,0.7-0.1,1.1-0.6
					c1.6-1.7,2.1-6.9,2.1-10.5L11.9,90.7z"/>
			</g>
			<g>
				<path class="st3" d="M29,99c-1.2,0-2.1-0.5-2.9-1.3c-2.6-3.2-1-11.2-0.8-12.1c0.1-0.4,0.4-0.8,0.9-0.9l6.9-1.9
					c0.4-0.1,0.7,0,1,0.2c0.3,0.2,0.5,0.6,0.5,0.9c0.1,1.1,0.4,10.4-2.7,13.8C31.2,98.6,30.2,99,29,99C29.1,99,29.1,99,29,99z
					 M27.7,86.8c-0.6,3.1-0.9,7.8,0.4,9.4c0.3,0.3,0.6,0.5,1,0.5c0.3,0,0.7-0.1,1.1-0.6c1.8-1.9,2.1-7.3,2.1-10.5L27.7,86.8z"/>
			</g>
			<g>
				<path class="st3" d="M43,95.5c-1.2,0-2.1-0.5-2.9-1.3c-2.6-3.2-1-11.2-0.8-12.1c0.1-0.4,0.4-0.8,0.9-0.9l6.9-1.9
					c0.4-0.1,0.7,0,1,0.2c0.3,0.2,0.5,0.6,0.5,0.9c0.1,1.1,0.4,10.4-2.7,13.8C45.1,95,44.1,95.5,43,95.5C43,95.5,43,95.5,43,95.5z
					 M41.6,83.3c-0.6,3.1-0.9,7.8,0.4,9.4c0.3,0.3,0.6,0.5,1,0.5c0.3,0,0.7-0.1,1.1-0.6c1.8-1.9,2.1-7.3,2.1-10.5L41.6,83.3z"/>
			</g>
		</g>
		<g>
			<path class="st3" d="M138.4,94.3c-0.1,0-0.2,0-0.3,0l-56-14.8c-0.5-0.1-0.9-0.6-0.9-1.2V48.5c0-0.4,0.2-0.8,0.6-1.1
				s0.8-0.2,1.2,0l56,31.1c0.4,0.2,0.6,0.6,0.6,1.1V93c0,0.4-0.2,0.7-0.5,1C138.9,94.2,138.7,94.3,138.4,94.3z M83.7,77.3l53.5,14.1
				V80.4L83.7,50.6V77.3z"/>
		</g>
		<g>
			<path class="st3" d="M114.2,67.2c-0.2,0-0.4-0.1-0.6-0.2l-12-6.7c-0.3-0.2-0.6-0.5-0.6-0.9c0-0.4-1-9,2.5-12.9
				c1.2-1.3,2.7-1.9,4.5-1.8c1.4,0,2.7,0.6,3.7,1.8c4.5,4.9,3.8,19,3.7,19.6c0,0.4-0.3,0.8-0.6,1C114.6,67.2,114.4,67.2,114.2,67.2z
				 M103.4,58.5l9.7,5.4c0-4.7-0.5-12.9-3.1-15.8c-0.6-0.6-1.2-1-2-1c-1.1,0-1.9,0.3-2.6,1.1C103.2,50.5,103.2,56,103.4,58.5z"/>
		</g>
		<g>
			<path class="st3" d="M123.3,103C123.2,103,123.2,103,123.3,103c-1.2,0-2.2-0.5-2.9-1.3c-3.2-3.4-2.8-12.8-2.7-13.8
				c0-0.4,0.2-0.7,0.5-0.9c0.3-0.2,0.7-0.3,1-0.2l6.9,1.9c0.4,0.1,0.8,0.5,0.9,0.9c0.2,0.9,1.8,9-0.8,12.1
				C125.4,102.5,124.4,103,123.3,103z M120,89.5c0,3.2,0.3,8.6,2.1,10.5c0.5,0.5,0.9,0.5,1.1,0.6c0.4,0,0.8-0.1,1-0.5
				c1.3-1.6,1-6.3,0.4-9.4L120,89.5z"/>
		</g>
		<g>
			<path class="st3" d="M107.6,99C107.5,99,107.5,99,107.6,99c-1.2,0-2.2-0.5-2.9-1.3c-3.2-3.4-2.8-12.8-2.7-13.8
				c0-0.4,0.2-0.7,0.5-0.9c0.3-0.2,0.7-0.3,1-0.2l6.9,1.9c0.4,0.1,0.8,0.5,0.9,0.9c0.2,0.9,1.8,9-0.8,12.1
				C109.7,98.6,108.7,99,107.6,99z M104.3,85.5c0,3.2,0.3,8.6,2.1,10.5c0.5,0.5,0.9,0.5,1.1,0.6c0.5,0,0.8-0.1,1-0.5
				c1.3-1.6,1-6.3,0.4-9.4L104.3,85.5z"/>
		</g>
		<g>
			<path class="st3" d="M93.6,95.5C93.6,95.5,93.6,95.5,93.6,95.5c-1.2,0-2.2-0.5-2.9-1.3c-3.2-3.4-2.8-12.8-2.7-13.8
				c0-0.4,0.2-0.7,0.5-0.9c0.3-0.2,0.7-0.3,1-0.2l6.9,1.9c0.4,0.1,0.8,0.5,0.9,0.9c0.2,0.9,1.8,9-0.8,12.1
				C95.8,95.1,94.8,95.5,93.6,95.5z M90.4,82c0,3.2,0.3,8.6,2.1,10.5c0.5,0.5,0.9,0.5,1.1,0.6c0.5,0,0.8-0.1,1-0.5
				c1.3-1.6,1-6.3,0.4-9.4L90.4,82z"/>
		</g>
		<g>
			<path class="st3" d="M68.3,125.9c-8.9,0-14.9-5.2-14.9-12.9V26.6c0-8.2,6.7-20.9,14.9-20.9s14.9,12.6,14.9,20.9V113
				C83.3,120.7,77.3,125.9,68.3,125.9z M68.3,8.1c-6.6,0-12.5,11.5-12.5,18.4V113c0,4.8,3.3,10.5,12.5,10.5s12.5-5.6,12.5-10.5V26.6
				C80.8,19.6,75,8.1,68.3,8.1z"/>
		</g>
		<g>
			<path class="st3" d="M68.1,31.6c1,12.3,1.2,25.1,1.2,37.5c-0.1,12.4-0.2,25.2-1.2,37.5c-1-12.3-1.2-25.1-1.2-37.5
				C67,56.7,67.1,43.9,68.1,31.6L68.1,31.6z"/>
		</g>
	</g>
	<g class="st1">
		<path d="M164.8,96.4l6.6-44.9h7.9l-8.5,55H158l-8.5-55h8.7L164.8,96.4z"/>
		<path d="M183.4,51.5h8.6v55h-8.6V51.5z"/>
		<path d="M226.3,106.5h-8.7l-1.5-10h-10.6l-1.5,10H196l8.8-55h12.7L226.3,106.5z M206.6,89.1h8.3l-4.2-27.8L206.6,89.1z"/>
		<path d="M227.9,98.7c0.9,0.1,2,0.1,3,0.1c2.8,0,5-1,5-5.3v-42h8.6v41.3c0,11-5.9,13.8-12.4,13.8c-1.6,0-2.8,0-4.2-0.2V98.7z"/>
		<path d="M278.4,106.5h-8.7l-1.5-10h-10.6l-1.5,10h-7.9l8.8-55h12.7L278.4,106.5z M258.7,89.1h8.3l-4.2-27.8L258.7,89.1z"/>
		<path d="M320.2,65.1v7.2c0,8.8-4.2,13.6-12.9,13.6h-4.1v20.7h-8.6v-55h12.7C315.9,51.5,320.2,56.3,320.2,65.1z M303.2,59.4V78h4.1
			c2.8,0,4.2-1.3,4.2-5.2v-8.3c0-3.9-1.5-5.2-4.2-5.2H303.2z"/>
		<path d="M322.1,51.5h26.7v7.9h-9v47.1h-8.6V59.4h-9V51.5z"/>
	</g>
</g>
<g id="Camada_4">
	<g>
		<g>
			<path class="st4" d="M67.9,156.1c-0.4,0-0.7-0.2-0.9-0.5c-0.3-0.4-0.4-1-0.1-1.4l25.6-39.1c0.4-0.6,1.1-0.7,1.7-0.4
				c0.6,0.4,0.7,1.1,0.4,1.7l-23.5,36l37.3-14.5c0.3-0.1,0.6-0.1,0.9,0l34.4,13.8l-24-35.3c-0.4-0.6-0.2-1.3,0.3-1.7
				c0.6-0.4,1.3-0.2,1.7,0.3l26.3,38.6c0.3,0.4,0.3,1-0.1,1.4c-0.3,0.4-0.9,0.6-1.4,0.4l-37.7-15.1L68.3,156
				C68.2,156.1,68,156.1,67.9,156.1z"/>
		</g>
		<g>
			<g>
				<path class="st4" d="M37.1,97.8c-0.3,0-0.5-0.1-0.7-0.3c-0.3-0.2-0.5-0.6-0.5-1V83.3c0-0.4,0.2-0.8,0.6-1.1l56-31.1
					c0.4-0.2,0.8-0.2,1.2,0c0.4,0.2,0.6,0.6,0.6,1.1v29.7c0,0.6-0.4,1-0.9,1.2l-56,14.8C37.4,97.8,37.3,97.8,37.1,97.8z M38.4,84V95
					l53.5-14.1V54.2L38.4,84z"/>
			</g>
			<g>
				<path class="st4" d="M61.3,70.8c-0.2,0-0.4-0.1-0.6-0.2c-0.4-0.2-0.6-0.6-0.6-1c0-0.6-0.7-14.7,3.7-19.6c1-1.1,2.3-1.7,3.7-1.8
					c1.8-0.1,3.3,0.6,4.5,1.8c3.5,3.8,2.5,12.5,2.5,12.9c0,0.4-0.3,0.7-0.6,0.9l-12,6.7C61.8,70.7,61.6,70.8,61.3,70.8z M67.8,50.7
					c0,0-0.1,0-0.1,0c-0.7,0-1.4,0.3-2,1c-2.7,2.9-3.2,11.1-3.1,15.8l9.7-5.4c0.2-2.6,0.2-8-1.9-10.3C69.6,51.1,68.8,50.7,67.8,50.7
					z M73.3,62.9L73.3,62.9L73.3,62.9z"/>
			</g>
			<g>
				<path class="st4" d="M52,106.6c-1.2,0-2.1-0.5-2.9-1.3c-2.6-3.2-1-11.2-0.8-12.1c0.1-0.4,0.4-0.8,0.9-0.9l6.9-1.9
					c0.4-0.1,0.7,0,1,0.2c0.3,0.2,0.5,0.6,0.5,0.9c0.1,1.1,0.4,10.4-2.7,13.8C54.1,106.1,53.1,106.5,52,106.6
					C52,106.6,52,106.6,52,106.6z M50.6,94.3c-0.6,3.1-0.9,7.8,0.4,9.4c0.3,0.3,0.6,0.5,1,0.5c0.3,0,0.7-0.1,1.1-0.6
					c1.6-1.7,2.1-6.9,2.1-10.5L50.6,94.3z"/>
			</g>
			<g>
				<path class="st4" d="M67.7,102.6c-1.2,0-2.1-0.5-2.9-1.3c-2.6-3.2-1-11.2-0.8-12.1c0.1-0.4,0.4-0.8,0.9-0.9l6.9-1.9
					c0.4-0.1,0.7,0,1,0.2c0.3,0.2,0.5,0.6,0.5,0.9c0.1,1.1,0.4,10.4-2.7,13.8C69.8,102.1,68.8,102.6,67.7,102.6
					C67.7,102.6,67.7,102.6,67.7,102.6z M66.3,90.4c-0.6,3.1-0.9,7.8,0.4,9.4c0.3,0.3,0.6,0.5,1,0.5c0.3,0,0.7-0.1,1.1-0.6
					c1.8-1.9,2.1-7.3,2.1-10.5L66.3,90.4z"/>
			</g>
			<g>
				<path class="st4" d="M81.6,99.1c-1.2,0-2.1-0.5-2.9-1.3c-2.6-3.2-1-11.2-0.8-12.1c0.1-0.4,0.4-0.8,0.9-0.9l6.9-1.9
					c0.4-0.1,0.7,0,1,0.2c0.3,0.2,0.5,0.6,0.5,0.9c0.1,1.1,0.4,10.4-2.7,13.8C83.7,98.6,82.8,99.1,81.6,99.1
					C81.7,99.1,81.6,99.1,81.6,99.1z M80.2,86.8c-0.6,3.1-0.9,7.8,0.4,9.4c0.3,0.3,0.6,0.5,1,0.5c0.3,0,0.7-0.1,1.1-0.6
					c1.8-1.9,2.1-7.3,2.1-10.5L80.2,86.8z"/>
			</g>
		</g>
		<g>
			<path class="st4" d="M177,97.8c-0.1,0-0.2,0-0.3,0l-56-14.8c-0.5-0.1-0.9-0.6-0.9-1.2V52.1c0-0.4,0.2-0.8,0.6-1.1
				c0.4-0.2,0.8-0.2,1.2,0l56,31.1c0.4,0.2,0.6,0.6,0.6,1.1v13.3c0,0.4-0.2,0.7-0.5,1C177.6,97.7,177.3,97.8,177,97.8z M122.3,80.9
				L175.8,95V84l-53.5-29.8V80.9z"/>
		</g>
		<g>
			<path class="st4" d="M152.8,70.8c-0.2,0-0.4-0.1-0.6-0.2l-12-6.7c-0.3-0.2-0.6-0.5-0.6-0.9c0-0.4-1-9,2.5-12.9
				c1.2-1.3,2.7-1.9,4.5-1.8c1.4,0,2.7,0.6,3.7,1.8c4.5,4.9,3.8,19,3.7,19.6c0,0.4-0.3,0.8-0.6,1C153.2,70.7,153,70.8,152.8,70.8z
				 M142,62.1l9.7,5.4c0-4.7-0.5-12.9-3.1-15.8c-0.6-0.6-1.2-1-2-1c-1.1,0-1.9,0.3-2.6,1.1C141.8,54.1,141.8,59.6,142,62.1z"/>
		</g>
		<g>
			<path class="st4" d="M161.9,106.6C161.9,106.6,161.8,106.6,161.9,106.6c-1.2,0-2.2-0.5-2.9-1.3c-3.2-3.4-2.8-12.8-2.7-13.8
				c0-0.4,0.2-0.7,0.5-0.9c0.3-0.2,0.7-0.3,1-0.2l6.9,1.9c0.4,0.1,0.8,0.5,0.9,0.9c0.2,0.9,1.8,9-0.8,12.1
				C164,106.1,163.1,106.6,161.9,106.6z M158.6,93c0,3.2,0.3,8.6,2.1,10.5c0.5,0.5,0.9,0.5,1.1,0.6c0.4,0,0.8-0.1,1-0.5
				c1.3-1.6,1-6.3,0.4-9.4L158.6,93z"/>
		</g>
		<g>
			<path class="st4" d="M146.2,102.6C146.2,102.6,146.1,102.6,146.2,102.6c-1.2,0-2.2-0.5-2.9-1.3c-3.2-3.4-2.8-12.8-2.7-13.8
				c0-0.4,0.2-0.7,0.5-0.9c0.3-0.2,0.7-0.3,1-0.2l6.9,1.9c0.4,0.1,0.8,0.5,0.9,0.9c0.2,0.9,1.8,9-0.8,12.1
				C148.3,102.2,147.3,102.6,146.2,102.6z M142.9,89.1c0,3.2,0.3,8.6,2.1,10.5c0.5,0.5,0.9,0.5,1.1,0.6c0.5,0,0.8-0.1,1-0.5
				c1.3-1.6,1-6.3,0.4-9.4L142.9,89.1z"/>
		</g>
		<g>
			<path class="st4" d="M132.3,99.1C132.2,99.1,132.2,99.1,132.3,99.1c-1.2,0-2.2-0.5-2.9-1.3c-3.2-3.4-2.8-12.8-2.7-13.8
				c0-0.4,0.2-0.7,0.5-0.9c0.3-0.2,0.7-0.3,1-0.2l6.9,1.9c0.4,0.1,0.8,0.5,0.9,0.9c0.2,0.9,1.8,9-0.8,12.1
				C134.4,98.6,133.4,99.1,132.3,99.1z M129,85.6c0,3.2,0.3,8.6,2.1,10.5c0.5,0.5,0.9,0.5,1.1,0.6c0.5,0,0.8-0.1,1-0.5
				c1.3-1.6,1-6.3,0.4-9.4L129,85.6z"/>
		</g>
		<g>
			<path class="st4" d="M107,129.5c-8.9,0-14.9-5.2-14.9-12.9V30.1c0-8.2,6.7-20.9,14.9-20.9s14.9,12.6,14.9,20.9v86.4
				C121.9,124.3,115.9,129.5,107,129.5z M107,11.7c-6.6,0-12.5,11.5-12.5,18.4v86.4c0,4.8,3.3,10.5,12.5,10.5s12.5-5.6,12.5-10.5
				V30.1C119.4,23.2,113.6,11.7,107,11.7z"/>
		</g>
		<g>
			<path class="st4" d="M106.7,35.2c1,12.3,1.2,25.1,1.2,37.5c-0.1,12.4-0.2,25.2-1.2,37.5c-1-12.3-1.2-25.1-1.2-37.5
				C105.6,60.3,105.8,47.5,106.7,35.2L106.7,35.2z"/>
		</g>
	</g>
	<g>
		<path d="M22.8,216.6l6.6-44.9h7.9l-8.5,55H15.9l-8.5-55h8.7L22.8,216.6z"/>
		<path d="M41.3,171.7H50v55h-8.6V171.7z"/>
		<path d="M84.2,226.7h-8.7l-1.5-10H63.4l-1.5,10H54l8.8-55h12.7L84.2,226.7z M64.5,209.2h8.3l-4.2-27.8L64.5,209.2z"/>
		<path d="M85.9,218.8c0.9,0.1,2,0.1,3,0.1c2.8,0,5-1,5-5.3v-42h8.6V213c0,11-5.9,13.8-12.4,13.8c-1.6,0-2.8,0-4.2-0.2V218.8z"/>
		<path d="M136.3,226.7h-8.7l-1.5-10h-10.6l-1.5,10h-7.9l8.8-55h12.7L136.3,226.7z M116.6,209.2h8.3l-4.2-27.8L116.6,209.2z"/>
		<path d="M178.1,185.3v7.2c0,8.8-4.2,13.6-12.9,13.6h-4.1v20.7h-8.6v-55h12.7C173.9,171.7,178.1,176.5,178.1,185.3z M161.2,179.5
			v18.6h4.1c2.8,0,4.2-1.3,4.2-5.2v-8.3c0-3.9-1.5-5.2-4.2-5.2H161.2z"/>
		<path d="M180,171.7h26.7v7.9h-9v47.1h-8.6v-47.1h-9V171.7z"/>
	</g>
</g>
</svg>
