<?xml version="1.0" encoding="utf-8"?>
<!-- Generator: Adobe Illustrator 27.5.0, SVG Export Plug-In . SVG Version: 6.00 Build 0)  -->
<svg version="1.1" xmlns="http://www.w3.org/2000/svg" xmlns:xlink="http://www.w3.org/1999/xlink" x="0px" y="0px"
	 viewBox="0 0 365 156.9" style="enable-background:new 0 0 365 156.9;" xml:space="preserve">
<style type="text/css">
	.st0{display:none;}
	.st1{display:inline;}
	.st2{fill:#FFFFFF;stroke:#AA0202;stroke-width:2;stroke-linecap:round;stroke-linejoin:round;stroke-miterlimit:10;}
	.st3{fill:#AA0202;}
</style>
<g id="Camada_1" class="st0">
	
		<image style="display:inline;overflow:visible;" width="1046" height="574" xlink:href="../../../../../../Desktop/Captura de Tela 2023-06-15 às 02.04.37.png"  transform="matrix(0.326 -0.3791 0.3791 0.326 404.2003 488.2196)">
	</image>
</g>
<g id="LOGO" class="st0">
	<g class="st1">
		<polyline class="st2" points="336.1,299.4 310.4,338.8 350.3,322.9 390.5,336.9 363.4,299.4 		"/>
		<g>
			<polygon class="st2" points="335.8,235.5 279.6,266.8 279.6,280.2 335.8,265.4 			"/>
			<path class="st2" d="M315.9,246.3c0,0,1.6-13.7-5.7-13.4c-7.4,0.2-6.3,20.2-6.3,20.2L315.9,246.3z"/>
			<g>
				<path class="st2" d="M292,276.9c0,0-2.6,12.2,2.5,12.1c5.1-0.1,4.4-13.9,4.4-13.9L292,276.9z"/>
				<path class="st2" d="M307.8,272.9c0,0-2.6,12.2,2.5,12.1c5.1-0.1,4.4-13.9,4.4-13.9L307.8,272.9z"/>
				<path class="st2" d="M321.8,269.4c0,0-2.6,12.2,2.5,12.1c5.1-0.1,4.4-13.9,4.4-13.9L321.8,269.4z"/>
			</g>
		</g>
		<g>
			<polygon class="st2" points="363.9,235.5 420.2,266.8 420.2,280.2 363.9,265.4 			"/>
			<path class="st2" d="M383.8,246.3c0,0-1.6-13.7,5.7-13.4c7.4,0.2,6.3,20.2,6.3,20.2L383.8,246.3z"/>
			<g>
				<path class="st2" d="M407.4,276.9c0,0,2.6,12.2-2.5,12.1c-5.1-0.1-4.4-13.9-4.4-13.9L407.4,276.9z"/>
				<path class="st2" d="M391.6,272.9c0,0,2.6,12.2-2.5,12.1c-5.1-0.1-4.4-13.9-4.4-13.9L391.6,272.9z"/>
				<path class="st2" d="M377.6,269.4c0,0,2.6,12.2-2.5,12.1c-5.1-0.1-4.4-13.9-4.4-13.9L377.6,269.4z"/>
			</g>
		</g>
		<path class="st2" d="M349.7,312L349.7,312c-7.6,0-13.8-4.2-13.8-11.8v-86.9c0-7.6,6.2-19.8,13.8-19.8h0c7.6,0,13.8,12.2,13.8,19.8
			v86.9C363.5,307.9,357.3,312,349.7,312z"/>
		<text transform="matrix(1 0 0 1 429.4462 303.8323)" style="font-family:'BebasNeueBold'; font-size:79px;">VIAJA PT</text>
		<g>
			<path class="st3" d="M349.5,218.5c1.4,25.1,1.4,50.2,0,75.3C348.1,268.7,348.1,243.6,349.5,218.5L349.5,218.5z"/>
		</g>
	</g>
</g>
<g id="Contorno">
	<g>
		<g>
			<path class="st3" d="M38.7,152.5c-0.4,0-0.7-0.2-0.9-0.5c-0.3-0.4-0.4-1-0.1-1.4l25.6-39.1c0.4-0.6,1.1-0.7,1.7-0.4
				c0.6,0.4,0.7,1.1,0.4,1.7l-23.5,36l37.3-14.5c0.3-0.1,0.6-0.1,0.9,0l34.4,13.8l-24-35.3c-0.4-0.6-0.2-1.3,0.3-1.7
				c0.6-0.4,1.3-0.2,1.7,0.3l26.3,38.6c0.3,0.4,0.3,1-0.1,1.4c-0.3,0.4-0.9,0.6-1.4,0.4l-37.7-15.1l-40.4,15.7
				C39,152.5,38.8,152.5,38.7,152.5z"/>
		</g>
		<g>
			<g>
				<path class="st3" d="M8,94.3c-0.3,0-0.5-0.1-0.7-0.3c-0.3-0.2-0.5-0.6-0.5-1V79.7c0-0.4,0.2-0.8,0.6-1.1l56-31.1
					c0.4-0.2,0.8-0.2,1.2,0c0.4,0.2,0.6,0.6,0.6,1.1v29.7c0,0.6-0.4,1-0.9,1.2l-56,14.8C8.2,94.2,8.1,94.3,8,94.3z M9.2,80.4v11.1
					l53.5-14.1V50.6L9.2,80.4z"/>
			</g>
			<g>
				<path class="st3" d="M32.1,67.2c-0.2,0-0.4-0.1-0.6-0.2c-0.4-0.2-0.6-0.6-0.6-1c0-0.6-0.7-14.7,3.7-19.6c1-1.1,2.3-1.7,3.7-1.8
					c1.8-0.1,3.3,0.6,4.5,1.8c3.5,3.8,2.5,12.5,2.5,12.9c0,0.4-0.3,0.7-0.6,0.9l-12,6.7C32.6,67.2,32.4,67.2,32.1,67.2z M38.6,47.2
					c0,0-0.1,0-0.1,0c-0.7,0-1.4,0.3-2,1c-2.7,2.9-3.2,11.1-3.1,15.8l9.7-5.4c0.2-2.6,0.2-8-1.9-10.3C40.4,47.5,39.6,47.2,38.6,47.2
					z M44.1,59.3L44.1,59.3L44.1,59.3z"/>
			</g>
			<g>
				<path class="st3" d="M22.8,103c-1.2,0-2.1-0.5-2.9-1.3c-2.6-3.2-1-11.2-0.8-12.1c0.1-0.4,0.4-0.8,0.9-0.9l6.9-1.9
					c0.4-0.1,0.7,0,1,0.2c0.3,0.2,0.5,0.6,0.5,0.9c0.1,1.1,0.4,10.4-2.7,13.8C24.9,102.5,23.9,103,22.8,103
					C22.8,103,22.8,103,22.8,103z M21.4,90.7c-0.6,3.1-0.9,7.8,0.4,9.4c0.3,0.3,0.6,0.5,1,0.5c0.3,0,0.7-0.1,1.1-0.6
					c1.6-1.7,2.1-6.9,2.1-10.5L21.4,90.7z"/>
			</g>
			<g>
				<path class="st3" d="M38.5,99c-1.2,0-2.1-0.5-2.9-1.3c-2.6-3.2-1-11.2-0.8-12.1c0.1-0.4,0.4-0.8,0.9-0.9l6.9-1.9
					c0.4-0.1,0.7,0,1,0.2c0.3,0.2,0.5,0.6,0.5,0.9c0.1,1.1,0.4,10.4-2.7,13.8C40.6,98.6,39.6,99,38.5,99C38.5,99,38.5,99,38.5,99z
					 M37.1,86.8c-0.6,3.1-0.9,7.8,0.4,9.4c0.3,0.3,0.6,0.5,1,0.5c0.3,0,0.7-0.1,1.1-0.6c1.8-1.9,2.1-7.3,2.1-10.5L37.1,86.8z"/>
			</g>
			<g>
				<path class="st3" d="M52.4,95.5c-1.2,0-2.1-0.5-2.9-1.3c-2.6-3.2-1-11.2-0.8-12.1c0.1-0.4,0.4-0.8,0.9-0.9l6.9-1.9
					c0.4-0.1,0.7,0,1,0.2c0.3,0.2,0.5,0.6,0.5,0.9c0.1,1.1,0.4,10.4-2.7,13.8C54.5,95,53.6,95.5,52.4,95.5
					C52.5,95.5,52.4,95.5,52.4,95.5z M51,83.3c-0.6,3.1-0.9,7.8,0.4,9.4c0.3,0.3,0.6,0.5,1,0.5c0.3,0,0.7-0.1,1.1-0.6
					c1.8-1.9,2.1-7.3,2.1-10.5L51,83.3z"/>
			</g>
		</g>
		<g>
			<path class="st3" d="M147.8,94.3c-0.1,0-0.2,0-0.3,0l-56-14.8c-0.5-0.1-0.9-0.6-0.9-1.2V48.5c0-0.4,0.2-0.8,0.6-1.1
				s0.8-0.2,1.2,0l56,31.1c0.4,0.2,0.6,0.6,0.6,1.1V93c0,0.4-0.2,0.7-0.5,1C148.4,94.2,148.1,94.3,147.8,94.3z M93.1,77.3l53.5,14.1
				V80.4L93.1,50.6V77.3z"/>
		</g>
		<g>
			<path class="st3" d="M123.6,67.2c-0.2,0-0.4-0.1-0.6-0.2l-12-6.7c-0.3-0.2-0.6-0.5-0.6-0.9c0-0.4-1-9,2.5-12.9
				c1.2-1.3,2.7-1.9,4.5-1.8c1.4,0,2.7,0.6,3.7,1.8c4.5,4.9,3.8,19,3.7,19.6c0,0.4-0.3,0.8-0.6,1C124,67.2,123.8,67.2,123.6,67.2z
				 M112.8,58.5l9.7,5.4c0-4.7-0.5-12.9-3.1-15.8c-0.6-0.6-1.2-1-2-1c-1.1,0-1.9,0.3-2.6,1.1C112.6,50.5,112.6,56,112.8,58.5z"/>
		</g>
		<g>
			<path class="st3" d="M132.7,103C132.7,103,132.6,103,132.7,103c-1.2,0-2.2-0.5-2.9-1.3c-3.2-3.4-2.8-12.8-2.7-13.8
				c0-0.4,0.2-0.7,0.5-0.9c0.3-0.2,0.7-0.3,1-0.2l6.9,1.9c0.4,0.1,0.8,0.5,0.9,0.9c0.2,0.9,1.8,9-0.8,12.1
				C134.8,102.5,133.9,103,132.7,103z M129.4,89.5c0,3.2,0.3,8.6,2.1,10.5c0.5,0.5,0.9,0.5,1.1,0.6c0.4,0,0.8-0.1,1-0.5
				c1.3-1.6,1-6.3,0.4-9.4L129.4,89.5z"/>
		</g>
		<g>
			<path class="st3" d="M117,99C117,99,116.9,99,117,99c-1.2,0-2.2-0.5-2.9-1.3c-3.2-3.4-2.8-12.8-2.7-13.8c0-0.4,0.2-0.7,0.5-0.9
				c0.3-0.2,0.7-0.3,1-0.2l6.9,1.9c0.4,0.1,0.8,0.5,0.9,0.9c0.2,0.9,1.8,9-0.8,12.1C119.1,98.6,118.1,99,117,99z M113.7,85.5
				c0,3.2,0.3,8.6,2.1,10.5c0.5,0.5,0.9,0.5,1.1,0.6c0.5,0,0.8-0.1,1-0.5c1.3-1.6,1-6.3,0.4-9.4L113.7,85.5z"/>
		</g>
		<g>
			<path class="st3" d="M103.1,95.5C103,95.5,103,95.5,103.1,95.5c-1.2,0-2.2-0.5-2.9-1.3c-3.2-3.4-2.8-12.8-2.7-13.8
				c0-0.4,0.2-0.7,0.5-0.9c0.3-0.2,0.7-0.3,1-0.2l6.9,1.9c0.4,0.1,0.8,0.5,0.9,0.9c0.2,0.9,1.8,9-0.8,12.1
				C105.2,95.1,104.2,95.5,103.1,95.5z M99.8,82c0,3.2,0.3,8.6,2.1,10.5c0.5,0.5,0.9,0.5,1.1,0.6c0.5,0,0.8-0.1,1-0.5
				c1.3-1.6,1-6.3,0.4-9.4L99.8,82z"/>
		</g>
		<g>
			<path class="st3" d="M77.8,125.9c-8.9,0-14.9-5.2-14.9-12.9V26.6c0-8.2,6.7-20.9,14.9-20.9s14.9,12.6,14.9,20.9V113
				C92.7,120.7,86.7,125.9,77.8,125.9z M77.8,8.1c-6.6,0-12.5,11.5-12.5,18.4V113c0,4.8,3.3,10.5,12.5,10.5s12.5-5.6,12.5-10.5V26.6
				C90.2,19.6,84.4,8.1,77.8,8.1z"/>
		</g>
		<g>
			<path class="st3" d="M77.5,31.6c1,12.3,1.2,25.1,1.2,37.5c-0.1,12.4-0.2,25.2-1.2,37.5c-1-12.3-1.2-25.1-1.2-37.5
				C76.4,56.7,76.6,43.9,77.5,31.6L77.5,31.6z"/>
		</g>
	</g>
	<g>
		<path d="M174.2,96.4l6.6-44.9h7.9l-8.5,55h-12.9l-8.5-55h8.7L174.2,96.4z"/>
		<path d="M192.8,51.5h8.6v55h-8.6V51.5z"/>
		<path d="M235.7,106.5H227l-1.5-10h-10.6l-1.5,10h-7.9l8.8-55h12.7L235.7,106.5z M216,89.1h8.3l-4.2-27.8L216,89.1z"/>
		<path d="M237.3,98.7c0.9,0.1,2,0.1,3,0.1c2.8,0,5-1,5-5.3v-42h8.6v41.3c0,11-5.9,13.8-12.4,13.8c-1.6,0-2.8,0-4.2-0.2V98.7z"/>
		<path d="M287.8,106.5h-8.7l-1.5-10H267l-1.5,10h-7.9l8.8-55H279L287.8,106.5z M268.1,89.1h8.3l-4.2-27.8L268.1,89.1z"/>
		<path d="M329.6,65.1v7.2c0,8.8-4.2,13.6-12.9,13.6h-4.1v20.7H304v-55h12.7C325.4,51.5,329.6,56.3,329.6,65.1z M312.6,59.4V78h4.1
			c2.8,0,4.2-1.3,4.2-5.2v-8.3c0-3.9-1.5-5.2-4.2-5.2H312.6z"/>
		<path d="M331.5,51.5h26.7v7.9h-9v47.1h-8.6V59.4h-9V51.5z"/>
	</g>
</g>
</svg>
