<?xml version="1.0" encoding="utf-8"?>
<!-- Generator: Adobe Illustrator 27.5.0, SVG Export Plug-In . SVG Version: 6.00 Build 0)  -->
<svg version="1.1" xmlns="http://www.w3.org/2000/svg" xmlns:xlink="http://www.w3.org/1999/xlink" x="0px" y="0px"
	 viewBox="0 0 364 218" style="enable-background:new 0 0 364 218;" xml:space="preserve">
<style type="text/css">
	.st0{opacity:0.45;}
	.st1{fill:#D40291;}
</style>
<g id="Camada_2">
</g>
<g id="Camada_1">
	<g>
		<rect x="53.5" y="61" width="257" height="96"/>
		<g class="st0">
			<path class="st1" d="M134.2,93h10.3l9.8,32h-9l-3.7-15.6c-0.8-3.1-1.6-7-2.4-10.2h-0.2c-0.7,3.3-1.5,7.1-2.3,10.2l-3.7,15.6h-8.7
				L134.2,93z"/>
			<path class="st1" d="M164.5,93h10.3l9.8,32h-9l-3.7-15.6c-0.8-3.1-1.6-7-2.4-10.2h-0.2c-0.7,3.3-1.5,7.1-2.3,10.2l-3.7,15.6h-8.7
				L164.5,93z"/>
			<path class="st1" d="M182.7,93h9l3.4,14c0.9,3.4,1.5,6.7,2.4,10.2h0.2c0.9-3.4,1.5-6.8,2.4-10.2l3.3-14h8.7l-9.5,32h-10.3
				L182.7,93z"/>
			<path class="st1" d="M226.5,93h-11.8v6.7h8.5h2.9c3.3,0,5,1.1,5.2,3.9c0.2,3.4-1.6,4.5-5,4.5h-3.1h-8.5V125h8.5v-10.2h3.5
				c6.8,0,12.9-3.4,12.9-11.2C239.6,95.5,233.5,93,226.5,93z"/>
		</g>
	</g>
</g>
</svg>
