<?xml version="1.0" encoding="utf-8"?>
<!-- Generator: Adobe Illustrator 27.4.0, SVG Export Plug-In . SVG Version: 6.00 Build 0)  -->
<svg version="1.1" xmlns="http://www.w3.org/2000/svg" xmlns:xlink="http://www.w3.org/1999/xlink" x="0px" y="0px"
	 viewBox="0 0 670.11 248.39" style="enable-background:new 0 0 670.11 248.39;" xml:space="preserve">
<style type="text/css">
	.st0{display:none;fill:#727171;}
	.st1{fill:#FFFFFF;}
	.st2{fill:none;stroke:#FFFFFF;stroke-width:12;stroke-linecap:round;stroke-linejoin:round;stroke-miterlimit:10;}
	.st3{display:none;}
	.st4{display:inline;}
	.st5{fill:none;stroke:#000000;stroke-width:12;stroke-linecap:round;stroke-linejoin:round;stroke-miterlimit:10;}
	.st6{clip-path:url(#SVGID_00000107579006508735560880000008048997954477369787_);}
	.st7{clip-path:url(#SVGID_00000136408042575999876250000011263053810846812308_);}
	.st8{display:inline;fill:#E09494;}
</style>
<g id="branco">
	<rect id="bg" x="-84.57" y="-173.76" class="st0" width="842.41" height="596.18"/>
	<g>
		<g>
			<path class="st1" d="M349,169.89h30.77L346.3,60.84h-35.17l-33.47,109.05h29.76l5.46-23.15h30.66L349,169.89z M318.14,124.43
				l1.78-7.55c2.71-10.4,5.41-23.49,7.78-34.56h0.68c2.71,10.91,5.41,24.16,8.12,34.56l1.78,7.55H318.14z"/>
			<path class="st1" d="M451.74,169.89h30.77L449.04,60.84h-35.17l-33.47,109.05h29.76l5.46-23.15h30.66L451.74,169.89z
				 M420.88,124.43l1.78-7.55c2.71-10.4,5.41-23.49,7.78-34.56h0.68c2.71,10.91,5.41,24.16,8.12,34.56l1.78,7.55H420.88z"/>
			<path class="st1" d="M471.75,60.84h30.77l11.5,47.65c3.04,11.58,5.07,22.82,8.12,34.56h0.68c3.04-11.74,5.24-22.98,8.12-34.56
				l11.16-47.65h29.76l-32.46,109.05h-35.17L471.75,60.84z"/>
			<path class="st1" d="M580.63,60.84h40.24c24.01,0,44.63,8.72,44.63,36.24c0,26.68-20.96,38.25-43.96,38.25h-11.83v34.56h-29.08
				V60.84z M620.2,112.52c11.5,0,16.91-5.7,16.91-15.43s-6.42-13.42-17.58-13.42h-9.81v28.86H620.2z"/>
		</g>
		<g>
			<path class="st1" d="M183.13,85.78l2.9-6.36l-17.42-16.68l-6.36,2.9c-24.55,11.19-52.75,11.19-77.31,0l-6.36-2.9L62.31,79.21
				l2.9,6.36c11.19,24.55,11.19,52.75,0,77.31l-2.9,6.36l16.81,16.49l6.36-2.9c24.55-11.19,52.75-11.19,77.31,0l6.36,2.9
				l16.89-16.27l-2.9-6.36C171.94,138.54,171.94,110.34,183.13,85.78z M144.6,135.91l-12.7,7.33l-12.7,7.33
				c-8.99,5.19-20.22-1.3-20.22-11.67v-14.66v-14.66c0-10.38,11.23-16.86,20.22-11.67l12.7,7.33l12.7,7.33
				C153.59,117.75,153.59,130.72,144.6,135.91z"/>
			<g>
				<circle class="st1" cx="202.83" cy="44.08" r="18.55"/>
				<circle class="st1" cx="203.68" cy="204.31" r="18.55"/>
				<circle class="st1" cx="42.6" cy="44.08" r="18.55"/>
				<circle class="st1" cx="42.6" cy="204.31" r="18.55"/>
			</g>
			<g>
				<path class="st2" d="M177.79,6.17c-17.32,17.41-17.25,45.56,0.16,62.88s45.56,17.25,62.88-0.16"/>
				<path class="st2" d="M178.87,242.3c-17.41-17.32-17.48-45.47-0.16-62.88s45.47-17.48,62.88-0.16"/>
				<path class="st2" d="M67.4,6.09c17.41,17.32,17.48,45.47,0.16,62.88S22.09,86.44,4.69,69.12"/>
				<path class="st2" d="M67.64,242.22c17.32-17.41,17.25-45.56-0.16-62.88s-45.56-17.25-62.88,0.16"/>
			</g>
		</g>
	</g>
	<g id="R" class="st3">
		<g class="st4">
			<g>
				<path class="st1" d="M772.04,379.26h30.77l-33.48-109.05h-35.17L700.7,379.26h29.76l5.46-23.15h30.66L772.04,379.26z
					 M741.18,333.79l1.78-7.55c2.71-10.4,5.41-23.49,7.78-34.56h0.68c2.71,10.91,5.41,24.16,8.12,34.56l1.78,7.55H741.18z"/>
				<path class="st1" d="M874.78,379.26h30.77l-33.48-109.05h-35.17l-33.47,109.05h29.76l5.46-23.15h30.66L874.78,379.26z
					 M843.92,333.79l1.78-7.55c2.71-10.4,5.41-23.49,7.78-34.56h0.68c2.71,10.91,5.41,24.16,8.12,34.56l1.78,7.55H843.92z"/>
				<path class="st1" d="M894.79,270.21h30.77l11.5,47.65c3.04,11.58,5.07,22.82,8.12,34.56h0.68c3.04-11.74,5.24-22.98,8.12-34.56
					l11.16-47.65h29.76l-32.46,109.05h-35.17L894.79,270.21z"/>
				<path class="st1" d="M1003.67,270.21h40.24c24.01,0,44.63,8.72,44.63,36.24c0,26.68-20.96,38.25-43.96,38.25h-11.83v34.56
					h-29.08V270.21z M1043.24,321.88c11.5,0,16.91-5.7,16.91-15.43s-6.42-13.42-17.58-13.42h-9.81v28.86H1043.24z"/>
			</g>
			<g>
				<path class="st1" d="M954.65,77.12l2.9-6.36l-17.42-16.68l-6.36,2.9c-24.55,11.19-52.75,11.19-77.31,0l-6.36-2.9l-16.28,16.46
					l2.9,6.36c11.19,24.55,11.19,52.75,0,77.31l-2.9,6.36l16.81,16.49l6.36-2.9c24.55-11.19,52.75-11.19,77.31,0l6.36,2.9
					l16.89-16.27l-2.9-6.36C943.46,129.87,943.46,101.68,954.65,77.12z M916.12,127.24l-12.7,7.33l-12.7,7.33
					c-8.99,5.19-20.22-1.3-20.22-11.67v-14.66v-14.66c0-10.38,11.23-16.86,20.22-11.67l12.7,7.33l12.7,7.33
					C925.11,109.08,925.11,122.06,916.12,127.24z"/>
				<g>
					<circle class="st1" cx="974.36" cy="35.42" r="18.55"/>
					<circle class="st1" cx="975.2" cy="195.65" r="18.55"/>
					<circle class="st1" cx="814.12" cy="35.42" r="18.55"/>
					<circle class="st1" cx="814.12" cy="195.65" r="18.55"/>
				</g>
				<g>
					<path class="st2" d="M949.31-2.49c-17.32,17.41-17.25,45.56,0.16,62.88s45.56,17.25,62.88-0.16"/>
					<path class="st2" d="M950.39,233.64c-17.41-17.32-17.48-45.47-0.16-62.88s45.47-17.48,62.88-0.16"/>
					<path class="st2" d="M838.93-2.57c17.41,17.32,17.48,45.47,0.16,62.88s-45.47,17.48-62.88,0.16"/>
					<path class="st2" d="M839.17,233.56c17.32-17.41,17.25-45.56-0.16-62.88s-45.56-17.25-62.88,0.16"/>
				</g>
			</g>
		</g>
	</g>
</g>
<g id="preto" class="st3">
	<g id="C">
		<g class="st4">
			<path d="M351.15,169.51h30.77L348.45,60.46h-35.17l-33.47,109.05h29.76l5.46-23.15h30.66L351.15,169.51z M320.29,124.04
				l1.78-7.55c2.71-10.4,5.41-23.49,7.78-34.56h0.68c2.71,10.91,5.41,24.16,8.12,34.56l1.78,7.55H320.29z"/>
			<path d="M453.89,169.51h30.77L451.19,60.46h-35.17l-33.47,109.05h29.76l5.46-23.15h30.66L453.89,169.51z M423.03,124.04
				l1.78-7.55c2.71-10.4,5.41-23.49,7.78-34.56h0.68c2.71,10.91,5.41,24.16,8.12,34.56l1.78,7.55H423.03z"/>
			<path d="M473.9,60.46h30.77l11.5,47.65c3.04,11.58,5.07,22.82,8.12,34.56h0.68c3.04-11.74,5.24-22.98,8.12-34.56l11.16-47.65
				h29.76l-32.46,109.05h-35.17L473.9,60.46z"/>
			<path d="M582.78,60.46h40.24c24.01,0,44.63,8.72,44.63,36.24c0,26.68-20.96,38.25-43.96,38.25h-11.83v34.56h-29.08V60.46z
				 M622.35,112.13c11.5,0,16.91-5.7,16.91-15.43s-6.42-13.42-17.58-13.42h-9.81v28.86H622.35z"/>
		</g>
		<g class="st4">
			<path d="M185.28,85.4l2.9-6.36l-17.42-16.68l-6.36,2.9c-24.55,11.19-52.75,11.19-77.31,0l-6.36-2.9L64.46,78.82l2.9,6.36
				c11.19,24.55,11.19,52.75,0,77.31l-2.9,6.36l16.81,16.49l6.36-2.9c24.55-11.19,52.75-11.19,77.31,0l6.36,2.9l16.89-16.27
				l-2.9-6.36C174.09,138.15,174.09,109.95,185.28,85.4z M146.75,135.52l-12.7,7.33l-12.7,7.33c-8.99,5.19-20.22-1.3-20.22-11.67
				v-14.66v-14.66c0-10.38,11.23-16.86,20.22-11.67l12.7,7.33l12.7,7.33C155.74,117.36,155.74,130.33,146.75,135.52z"/>
			<g>
				<circle cx="204.98" cy="43.69" r="18.55"/>
				<path class="st5" d="M179.94,5.78c-17.32,17.41-17.25,45.56,0.16,62.88s45.56,17.25,62.88-0.16"/>
				<circle cx="205.83" cy="203.93" r="18.55"/>
				<path class="st5" d="M181.02,241.92c-17.41-17.32-17.48-45.47-0.16-62.88s45.47-17.48,62.88-0.16"/>
				<circle cx="44.75" cy="43.69" r="18.55"/>
				<path class="st5" d="M69.55,5.7c17.41,17.32,17.48,45.47,0.16,62.88S24.24,86.06,6.84,68.74"/>
				<circle cx="44.75" cy="203.93" r="18.55"/>
				<path class="st5" d="M69.79,241.84c17.32-17.41,17.25-45.56-0.16-62.88s-45.56-17.25-62.88,0.16"/>
			</g>
		</g>
	</g>
	<g id="R_00000034062846054856023000000014231986559972061345_" class="st4">
		<g>
			<g>
				<path d="M772.04,378.77h30.77l-33.48-109.05h-35.17L700.7,378.77h29.76l5.46-23.15h30.66L772.04,378.77z M741.18,333.3
					l1.78-7.55c2.71-10.4,5.41-23.49,7.78-34.56h0.68c2.71,10.91,5.41,24.16,8.12,34.56l1.78,7.55H741.18z"/>
				<path d="M874.78,378.77h30.77l-33.48-109.05h-35.17l-33.47,109.05h29.76l5.46-23.15h30.66L874.78,378.77z M843.92,333.3
					l1.78-7.55c2.71-10.4,5.41-23.49,7.78-34.56h0.68c2.71,10.91,5.41,24.16,8.12,34.56l1.78,7.55H843.92z"/>
				<path d="M894.79,269.72h30.77l11.5,47.65c3.04,11.58,5.07,22.82,8.12,34.56h0.68c3.04-11.74,5.24-22.98,8.12-34.56l11.16-47.65
					h29.76l-32.46,109.05h-35.17L894.79,269.72z"/>
				<path d="M1003.67,269.72h40.24c24.01,0,44.63,8.72,44.63,36.24c0,26.68-20.96,38.25-43.96,38.25h-11.83v34.56h-29.08V269.72z
					 M1043.24,321.39c11.5,0,16.91-5.7,16.91-15.43s-6.42-13.42-17.58-13.42h-9.81v28.86H1043.24z"/>
			</g>
			<g>
				<path d="M954.65,77.61l2.9-6.36l-17.42-16.68l-6.36,2.9c-24.55,11.19-52.75,11.19-77.31,0l-6.36-2.9l-16.28,16.46l2.9,6.36
					c11.19,24.55,11.19,52.75,0,77.31l-2.9,6.36l16.81,16.49l6.36-2.9c24.55-11.19,52.75-11.19,77.31,0l6.36,2.9l16.89-16.27
					l-2.9-6.36C943.46,130.36,943.46,102.16,954.65,77.61z M916.12,127.73l-12.7,7.33l-12.7,7.33c-8.99,5.19-20.22-1.3-20.22-11.67
					v-14.66V101.4c0-10.38,11.23-16.86,20.22-11.67l12.7,7.33l12.7,7.33C925.11,109.57,925.11,122.54,916.12,127.73z"/>
				<g>
					<circle cx="974.36" cy="35.9" r="18.55"/>
					<path class="st5" d="M949.31-2.01c-17.32,17.41-17.25,45.56,0.16,62.88s45.56,17.25,62.88-0.16"/>
					<circle cx="975.2" cy="196.14" r="18.55"/>
					<path class="st5" d="M950.39,234.13c-17.41-17.32-17.48-45.47-0.16-62.88s45.47-17.48,62.88-0.16"/>
					<circle cx="814.12" cy="35.9" r="18.55"/>
					<path class="st5" d="M838.93-2.09c17.41,17.32,17.48,45.47,0.16,62.88s-45.47,17.48-62.88,0.16"/>
					<circle cx="814.12" cy="196.14" r="18.55"/>
					<path class="st5" d="M839.17,234.05c17.32-17.41,17.25-45.56-0.16-62.88s-45.56-17.25-62.88,0.16"/>
				</g>
			</g>
		</g>
	</g>
</g>
<g id="colorido" class="st3">
	<g id="C_00000061449294871176967190000002051046276863536810_">
		<g class="st4">
			<path d="M350.65,169.51h30.77L347.95,60.46h-35.17l-33.47,109.05h29.76l5.46-23.15h30.66L350.65,169.51z M319.79,124.04
				l1.78-7.55c2.71-10.4,5.41-23.49,7.78-34.56h0.68c2.71,10.91,5.41,24.16,8.12,34.56l1.78,7.55H319.79z"/>
			<path d="M453.39,169.51h30.77L450.69,60.46h-35.17l-33.47,109.05h29.76l5.46-23.15h30.66L453.39,169.51z M422.53,124.04
				l1.78-7.55c2.71-10.4,5.41-23.49,7.78-34.56h0.68c2.71,10.91,5.41,24.16,8.12,34.56l1.78,7.55H422.53z"/>
			<path d="M473.4,60.46h30.77l11.5,47.65c3.04,11.58,5.07,22.82,8.12,34.56h0.68c3.04-11.74,5.24-22.98,8.12-34.56l11.16-47.65
				h29.76l-32.46,109.05h-35.17L473.4,60.46z"/>
			<path d="M582.28,60.46h40.24c24.01,0,44.63,8.72,44.63,36.24c0,26.68-20.96,38.25-43.96,38.25h-11.83v34.56h-29.08V60.46z
				 M621.85,112.13c11.5,0,16.91-5.7,16.91-15.43s-6.42-13.42-17.58-13.42h-9.81v28.86H621.85z"/>
		</g>
		<g class="st4">
			<g>
				<g>
					<defs>
						<path id="SVGID_1_" d="M185.78,85.4l2.9-6.36l-17.42-16.68l-6.36,2.9c-24.55,11.19-52.75,11.19-77.31,0l-6.36-2.9L64.96,78.82
							l2.9,6.36c11.19,24.55,11.19,52.75,0,77.31l-2.9,6.36l16.81,16.49l6.36-2.9c24.55-11.19,52.75-11.19,77.31,0l6.36,2.9
							l16.89-16.27l-2.9-6.36C174.59,138.15,174.59,109.95,185.78,85.4z M147.25,135.52l-12.7,7.33l-12.7,7.33
							c-8.99,5.19-20.22-1.3-20.22-11.67v-14.66v-14.66c0-10.38,11.23-16.86,20.22-11.67l12.7,7.33l12.7,7.33
							C156.24,117.36,156.24,130.33,147.25,135.52z"/>
					</defs>
					<clipPath id="SVGID_00000159457414756237843430000002159836522596140703_">
						<use xlink:href="#SVGID_1_"  style="overflow:visible;"/>
					</clipPath>
					<g style="clip-path:url(#SVGID_00000159457414756237843430000002159836522596140703_);">
					</g>
				</g>
				<path d="M169.44,73.08l8.4,8.04l-0.25,0.54c-12.27,26.94-12.27,57.83,0,84.77l0.26,0.56l-7.9,7.61l-0.79-0.36
					c-13.4-6.11-27.66-9.2-42.38-9.2s-28.99,3.1-42.38,9.2l-0.73,0.33l-7.9-7.75l0.28-0.62c12.27-26.94,12.27-57.83,0-84.77
					l-0.32-0.71l7.5-7.58l0.64,0.29c13.4,6.11,27.66,9.2,42.38,9.2c14.73,0,28.99-3.1,42.38-9.2L169.44,73.08 M115.14,161.01
					c3.9,0,7.78-1.05,11.22-3.03l12.7-7.33l12.7-7.33c7.04-4.06,11.24-11.34,11.24-19.47c0-8.13-4.2-15.4-11.24-19.47l-12.7-7.33
					l-12.7-7.33c-3.44-1.98-7.31-3.03-11.22-3.03c-12.41,0-22.5,10.09-22.5,22.5v14.66v14.66
					C92.64,150.91,102.73,161.01,115.14,161.01 M171.26,62.36l-6.36,2.9c-12.28,5.59-25.46,8.39-38.65,8.39s-26.38-2.8-38.65-8.39
					l-6.36-2.9L64.96,78.82l2.9,6.36c11.19,24.55,11.19,52.75,0,77.31l-2.9,6.36l16.81,16.49l6.36-2.9
					c12.28-5.59,25.46-8.39,38.65-8.39s26.38,2.8,38.65,8.39l6.36,2.9l16.89-16.27l-2.9-6.36c-11.19-24.55-11.19-52.75,0-77.31
					l2.9-6.36L171.26,62.36L171.26,62.36z M115.14,152.01c-7.04,0-13.5-5.63-13.5-13.5v-14.66v-14.66c0-7.87,6.46-13.5,13.5-13.5
					c2.24,0,4.55,0.57,6.72,1.83l12.7,7.33l12.7,7.33c8.99,5.19,8.99,18.16,0,23.35l-12.7,7.33l-12.7,7.33
					C119.69,151.43,117.38,152.01,115.14,152.01L115.14,152.01z"/>
			</g>
			<g>
				<circle cx="205.48" cy="43.69" r="18.55"/>
				<path class="st5" d="M180.44,5.78c-17.32,17.41-17.25,45.56,0.16,62.88s45.56,17.25,62.88-0.16"/>
				<circle cx="206.33" cy="203.93" r="18.55"/>
				<path class="st5" d="M181.52,241.92c-17.41-17.32-17.48-45.47-0.16-62.88s45.47-17.48,62.88-0.16"/>
				<circle cx="45.25" cy="43.69" r="18.55"/>
				<path class="st5" d="M70.05,5.7c17.41,17.32,17.48,45.47,0.16,62.88S24.74,86.06,7.34,68.74"/>
				<circle cx="45.25" cy="203.93" r="18.55"/>
				<path class="st5" d="M70.29,241.84c17.32-17.41,17.25-45.56-0.16-62.88s-45.56-17.25-62.88,0.16"/>
			</g>
		</g>
	</g>
	<g id="R_00000015336121255764727210000017421298551673232262_" class="st4">
		<g>
			<g>
				<path d="M772.04,378.92h30.77l-33.48-109.05h-35.17L700.7,378.92h29.76l5.46-23.15h30.66L772.04,378.92z M741.18,333.45
					l1.78-7.55c2.71-10.4,5.41-23.49,7.78-34.56h0.68c2.71,10.91,5.41,24.16,8.12,34.56l1.78,7.55H741.18z"/>
				<path d="M874.78,378.92h30.77l-33.48-109.05h-35.17l-33.47,109.05h29.76l5.46-23.15h30.66L874.78,378.92z M843.92,333.45
					l1.78-7.55c2.71-10.4,5.41-23.49,7.78-34.56h0.68c2.71,10.91,5.41,24.16,8.12,34.56l1.78,7.55H843.92z"/>
				<path d="M894.79,269.86h30.77l11.5,47.65c3.04,11.58,5.07,22.82,8.12,34.56h0.68c3.04-11.74,5.24-22.98,8.12-34.56l11.16-47.65
					h29.76l-32.46,109.05h-35.17L894.79,269.86z"/>
				<path d="M1003.67,269.86h40.24c24.01,0,44.63,8.72,44.63,36.24c0,26.68-20.96,38.25-43.96,38.25h-11.83v34.56h-29.08V269.86z
					 M1043.24,321.54c11.5,0,16.91-5.7,16.91-15.43s-6.42-13.42-17.58-13.42h-9.81v28.86H1043.24z"/>
			</g>
			<g>
				<g>
					<g>
						<defs>
							<path id="SVGID_00000110431134009984581580000009978766064777767844_" d="M954.65,77.46l2.9-6.36l-17.42-16.68l-6.36,2.9
								c-24.55,11.19-52.75,11.19-77.31,0l-6.36-2.9l-16.28,16.46l2.9,6.36c11.19,24.55,11.19,52.75,0,77.31l-2.9,6.36l16.81,16.49
								l6.36-2.9c24.55-11.19,52.75-11.19,77.31,0l6.36,2.9l16.89-16.27l-2.9-6.36C943.46,130.21,943.46,102.02,954.65,77.46z
								 M916.12,127.58l-12.7,7.33l-12.7,7.33c-8.99,5.19-20.22-1.3-20.22-11.67v-14.66v-14.66c0-10.38,11.23-16.86,20.22-11.67
								l12.7,7.33l12.7,7.33C925.11,109.43,925.11,122.4,916.12,127.58z"/>
						</defs>
						<clipPath id="SVGID_00000006701081183461076480000002051913045076157361_">
							<use xlink:href="#SVGID_00000110431134009984581580000009978766064777767844_"  style="overflow:visible;"/>
						</clipPath>
						<g style="clip-path:url(#SVGID_00000006701081183461076480000002051913045076157361_);">
						</g>
					</g>
					<path d="M938.31,65.15l8.4,8.04l-0.25,0.54c-12.27,26.94-12.27,57.83,0,84.77l0.26,0.56l-7.9,7.61l-0.79-0.36
						c-13.4-6.11-27.66-9.2-42.38-9.2s-28.99,3.1-42.38,9.2l-0.73,0.33l-7.9-7.75l0.28-0.62c12.27-26.94,12.27-57.83,0-84.77
						l-0.32-0.71l7.5-7.58l0.64,0.29c13.4,6.11,27.66,9.2,42.38,9.2s28.99-3.1,42.38-9.2L938.31,65.15 M884.01,153.07
						c3.9,0,7.78-1.05,11.22-3.03l12.7-7.33l12.7-7.33c7.04-4.06,11.24-11.34,11.24-19.47c0-8.13-4.2-15.4-11.24-19.47l-12.7-7.33
						l-12.7-7.33c-3.44-1.98-7.31-3.03-11.22-3.03c-12.41,0-22.5,10.09-22.5,22.5v14.66v14.66
						C861.51,142.98,871.61,153.07,884.01,153.07 M940.13,54.43l-6.36,2.9c-12.28,5.59-25.46,8.39-38.65,8.39s-26.38-2.8-38.65-8.39
						l-6.36-2.9l-16.28,16.46l2.9,6.36c11.19,24.55,11.19,52.75,0,77.31l-2.9,6.36l16.81,16.49l6.36-2.9
						c12.28-5.59,25.46-8.39,38.65-8.39s26.38,2.8,38.65,8.39l6.36,2.9l16.89-16.27l-2.9-6.36c-11.19-24.55-11.19-52.75,0-77.31
						l2.9-6.36L940.13,54.43L940.13,54.43z M884.01,144.07c-7.04,0-13.5-5.63-13.5-13.5v-14.66v-14.66c0-7.87,6.46-13.5,13.5-13.5
						c2.24,0,4.55,0.57,6.72,1.83l12.7,7.33l12.7,7.33c8.99,5.19,8.99,18.16,0,23.35l-12.7,7.33l-12.7,7.33
						C888.56,143.5,886.26,144.07,884.01,144.07L884.01,144.07z"/>
				</g>
				<g>
					<circle cx="974.36" cy="35.76" r="18.55"/>
					<path class="st5" d="M949.31-2.15c-17.32,17.41-17.25,45.56,0.16,62.88s45.56,17.25,62.88-0.16"/>
					<circle cx="975.2" cy="195.99" r="18.55"/>
					<path class="st5" d="M950.39,233.98c-17.41-17.32-17.48-45.47-0.16-62.88s45.47-17.48,62.88-0.16"/>
					<circle cx="814.12" cy="35.76" r="18.55"/>
					<path class="st5" d="M838.93-2.23c17.41,17.32,17.48,45.47,0.16,62.88s-45.47,17.48-62.88,0.16"/>
					<circle cx="814.12" cy="195.99" r="18.55"/>
					<path class="st5" d="M839.17,233.9c17.32-17.41,17.25-45.56-0.16-62.88s-45.56-17.25-62.88,0.16"/>
				</g>
			</g>
		</g>
	</g>
</g>
<g id="MEDIDAS" class="st3">
	<rect x="-159.42" y="545.64" class="st8" width="455.53" height="28.94"/>
	<rect x="-159.55" y="89.92" class="st8" width="28.94" height="455.53"/>
</g>
</svg>
