<?xml version="1.0" encoding="utf-8"?>
<!-- Generator: Adobe Illustrator 27.5.0, SVG Export Plug-In . SVG Version: 6.00 Build 0)  -->
<svg version="1.1" id="Camada_1" xmlns="http://www.w3.org/2000/svg" xmlns:xlink="http://www.w3.org/1999/xlink" x="0px" y="0px"
	 viewBox="0 0 398.5 401.2" style="enable-background:new 0 0 398.5 401.2;" xml:space="preserve">
<style type="text/css">
	.st0{display:none;}
	.st1{fill:#727171;}
	.st2{display:inline;}
	.st3{fill:#FFFFFF;}
	.st4{fill:none;stroke:#FFFFFF;stroke-width:12;stroke-linecap:round;stroke-linejoin:round;stroke-miterlimit:10;}
	.st5{fill:none;stroke:#000000;stroke-width:12;stroke-linecap:round;stroke-linejoin:round;stroke-miterlimit:10;}
	.st6{display:inline;fill:#E09494;}
	.st7{display:none;fill:#727171;}
</style>
<g id="branco" class="st0">
	<rect id="bg" x="-779.9" y="-161.5" class="st1" width="1397.2" height="596.2"/>
	<g>
		<g class="st2">
			<path class="st3" d="M-346.4,182.2h30.8l-33.5-109.1h-35.2l-33.5,109.1h29.8l5.5-23.1h30.7L-346.4,182.2z M-377.2,136.7l1.8-7.6
				c2.7-10.4,5.4-23.5,7.8-34.6h0.7c2.7,10.9,5.4,24.2,8.1,34.6l1.8,7.6H-377.2z"/>
			<path class="st3" d="M-243.6,182.2h30.8l-33.5-109.1h-35.2L-315,182.2h29.8l5.5-23.1h30.7L-243.6,182.2z M-274.5,136.7l1.8-7.6
				c2.7-10.4,5.4-23.5,7.8-34.6h0.7c2.7,10.9,5.4,24.2,8.1,34.6l1.8,7.6H-274.5z"/>
			<path class="st3" d="M-223.6,73.1h30.8l11.5,47.7c3,11.6,5.1,22.8,8.1,34.6h0.7c3-11.7,5.2-23,8.1-34.6l11.2-47.7h29.8l-32.5,109
				h-35.2L-223.6,73.1z"/>
			<path class="st3" d="M-114.7,73.1h40.2c24,0,44.6,8.7,44.6,36.2c0,26.7-21,38.2-44,38.2h-11.8v34.6h-29.1
				C-114.7,182.2-114.7,73.1-114.7,73.1z M-75.2,124.8c11.5,0,16.9-5.7,16.9-15.4S-64.7,96-75.8,96h-9.8v28.9L-75.2,124.8
				L-75.2,124.8z"/>
		</g>
		<g class="st2">
			<path class="st3" d="M-512.2,98.1l2.9-6.4L-526.8,75l-6.4,2.9c-24.5,11.2-52.8,11.2-77.3,0l-6.4-2.9l-16.3,16.5l2.9,6.4
				c11.2,24.5,11.2,52.8,0,77.3l-2.9,6.4l16.8,16.5l6.4-2.9c24.5-11.2,52.8-11.2,77.3,0l6.4,2.9l16.9-16.3l-2.9-6.4
				C-523.4,150.8-523.4,122.6-512.2,98.1z M-550.8,148.2l-12.7,7.3l-12.7,7.3c-9,5.2-20.2-1.3-20.2-11.7v-14.7v-14.7
				c0-10.4,11.2-16.9,20.2-11.7l12.7,7.3l12.7,7.3C-541.8,130-541.8,143-550.8,148.2z"/>
			<g>
				<circle class="st3" cx="-492.5" cy="56.4" r="18.5"/>
				<circle class="st3" cx="-491.7" cy="216.6" r="18.5"/>
				<circle class="st3" cx="-652.8" cy="56.4" r="18.5"/>
				<circle class="st3" cx="-652.8" cy="216.6" r="18.5"/>
			</g>
			<g>
				<path class="st4" d="M-517.6,18.5c-17.3,17.4-17.2,45.6,0.2,62.9s45.6,17.2,62.9-0.2"/>
				<path class="st4" d="M-516.5,254.6c-17.4-17.3-17.5-45.5-0.2-62.9s45.5-17.5,62.9-0.2"/>
				<path class="st4" d="M-628,18.4c17.4,17.3,17.5,45.5,0.2,62.9s-45.5,17.5-62.9,0.2"/>
				<path class="st4" d="M-627.7,254.5c17.3-17.4,17.2-45.6-0.2-62.9s-45.6-17.2-62.9,0.2"/>
			</g>
		</g>
	</g>
	<g id="R" class="st2">
		<g>
			<g>
				<path class="st3" d="M109.3,378.2h22.6l-24.6-80H81.5l-24.6,80h21.8l4-17h22.5L109.3,378.2z M86.7,344.8l1.3-5.5
					c2-7.6,4-17.2,5.7-25.4h0.5c2,8,4,17.7,5.9,25.4l1.3,5.5H86.7z"/>
				<path class="st3" d="M184.7,378.2h22.6l-24.6-80h-25.8l-24.6,80h21.8l4-17h22.5L184.7,378.2z M162.1,344.8l1.3-5.5
					c2-7.6,4-17.2,5.7-25.4h0.5c2,8,4,17.7,5.9,25.4l1.3,5.5H162.1z"/>
				<path class="st3" d="M199.4,298.2H222l8.4,35c2.2,8.5,3.7,16.7,5.9,25.4h0.5c2.2-8.6,3.9-16.9,5.9-25.4l8.2-35h21.8l-23.8,80
					h-25.8L199.4,298.2z"/>
				<path class="st3" d="M279.3,298.2h29.5c17.6,0,32.8,6.4,32.8,26.6c0,19.6-15.4,28.1-32.2,28.1h-8.7v25.4h-21.3V298.2z
					 M308.3,336.1c8.4,0,12.4-4.2,12.4-11.3s-4.7-9.9-12.9-9.9h-7.2v21.2H308.3z"/>
			</g>
			<g>
				<path class="st3" d="M255.9,102.8l2.9-6.4l-17.4-16.7l-6.4,2.9c-24.6,11.2-52.8,11.2-77.3,0l-6.4-2.9L135,96.2l2.9,6.4
					c11.2,24.6,11.2,52.8,0,77.3l-2.9,6.4l16.8,16.5l6.4-2.9c24.6-11.2,52.8-11.2,77.3,0l6.4,2.9l16.9-16.3l-2.9-6.4
					C244.7,155.5,244.7,127.3,255.9,102.8z M217.3,152.9l-12.7,7.3l-12.7,7.3c-9,5.2-20.2-1.3-20.2-11.7v-14.7v-14.7
					c0-10.4,11.2-16.9,20.2-11.7l12.7,7.3l12.7,7.3C226.3,134.7,226.3,147.7,217.3,152.9z"/>
				<g>
					<circle class="st3" cx="275.6" cy="61" r="18.5"/>
					<circle class="st3" cx="276.4" cy="221.3" r="18.5"/>
					<circle class="st3" cx="115.3" cy="61" r="18.5"/>
					<circle class="st3" cx="115.3" cy="221.3" r="18.5"/>
				</g>
				<g>
					<path class="st4" d="M250.5,23.1c-17.3,17.4-17.2,45.6,0.2,62.9s45.6,17.2,62.9-0.2"/>
					<path class="st4" d="M251.6,259.3c-17.4-17.3-17.5-45.5-0.2-62.9s45.5-17.5,62.9-0.2"/>
					<path class="st4" d="M140.1,23.1c17.4,17.3,17.5,45.5,0.2,62.9s-45.5,17.5-62.9,0.2"/>
					<path class="st4" d="M140.4,259.2c17.3-17.4,17.2-45.6-0.2-62.9s-45.6-17.2-62.9,0.2"/>
				</g>
			</g>
		</g>
	</g>
</g>
<g id="preto" class="st0">
	<g id="C" class="st2">
		<g>
			<path d="M-344.2,181.8h30.8l-33.5-109.1h-35.2l-33.5,109.1h29.8l5.5-23.1h30.7L-344.2,181.8z M-375.1,136.3l1.8-7.6
				c2.7-10.4,5.4-23.5,7.8-34.6h0.7c2.7,10.9,5.4,24.2,8.1,34.6l1.8,7.6H-375.1z"/>
			<path d="M-241.5,181.8h30.8l-33.5-109.1h-35.2l-33.5,109.1h29.8l5.5-23.1h30.7L-241.5,181.8z M-272.3,136.3l1.8-7.6
				c2.7-10.4,5.4-23.5,7.8-34.6h0.7c2.7,10.9,5.4,24.2,8.1,34.6l1.8,7.6H-272.3z"/>
			<path d="M-221.5,72.7h30.8l11.5,47.7c3,11.6,5.1,22.8,8.1,34.6h0.7c3-11.7,5.2-23,8.1-34.6l11.2-47.7h29.8l-32.5,109.1H-189
				L-221.5,72.7z"/>
			<path d="M-112.6,72.7h40.2c24,0,44.6,8.7,44.6,36.2c0,26.7-21,38.2-44,38.2h-11.8v34.6h-29.1V72.7z M-73,124.4
				c11.5,0,16.9-5.7,16.9-15.4s-6.4-13.4-17.6-13.4h-9.8v28.9L-73,124.4L-73,124.4z"/>
		</g>
		<g>
			<path d="M-510.1,97.7l2.9-6.4l-17.4-16.7l-6.4,2.9c-24.5,11.2-52.8,11.2-77.3,0l-6.4-2.9l-16.3,16.5l2.9,6.4
				c11.2,24.5,11.2,52.7,0,77.3l-2.9,6.4l16.8,16.5l6.4-2.9c24.5-11.2,52.8-11.2,77.3,0l6.4,2.9l16.9-16.3l-2.9-6.4
				C-521.3,150.4-521.3,122.2-510.1,97.7z M-548.6,147.8l-12.7,7.3l-12.7,7.3c-9,5.2-20.2-1.3-20.2-11.7v-14.7v-14.7
				c0-10.4,11.2-16.9,20.2-11.7l12.7,7.3l12.7,7.3C-539.6,129.6-539.6,142.6-548.6,147.8z"/>
			<g>
				<circle cx="-490.4" cy="56" r="18.5"/>
				<path class="st5" d="M-515.4,18.1c-17.3,17.4-17.2,45.6,0.2,62.9c17.4,17.3,45.6,17.2,62.9-0.2"/>
				<circle cx="-489.5" cy="216.2" r="18.5"/>
				<path class="st5" d="M-514.3,254.2c-17.4-17.3-17.5-45.5-0.2-62.9s45.5-17.5,62.9-0.2"/>
				<circle cx="-650.6" cy="56" r="18.5"/>
				<path class="st5" d="M-625.8,18c17.4,17.3,17.5,45.5,0.2,62.9s-45.5,17.5-62.9,0.2"/>
				<circle cx="-650.6" cy="216.2" r="18.5"/>
				<path class="st5" d="M-625.6,254.1c17.3-17.4,17.2-45.6-0.2-62.9s-45.6-17.2-62.9,0.2"/>
			</g>
		</g>
	</g>
	<g id="R_00000034062846054856023000000014231986559972061345_" class="st2">
		<g>
			<g>
				<path d="M109.3,377.8h22.6l-24.6-80H81.5l-24.6,80h21.8l4-17h22.5L109.3,377.8z M86.7,344.4l1.3-5.5c2-7.6,4-17.2,5.7-25.4h0.5
					c2,8,4,17.7,5.9,25.4l1.3,5.5H86.7z"/>
				<path d="M184.7,377.8h22.6l-24.6-80h-25.8l-24.6,80h21.8l4-17h22.5L184.7,377.8z M162.1,344.4l1.3-5.5c2-7.6,4-17.2,5.7-25.4
					h0.5c2,8,4,17.7,5.9,25.4l1.3,5.5H162.1z"/>
				<path d="M199.4,297.8H222l8.4,35c2.2,8.5,3.7,16.7,5.9,25.4h0.5c2.2-8.6,3.9-16.9,5.9-25.4l8.2-35h21.8l-23.8,80h-25.8
					L199.4,297.8z"/>
				<path d="M279.3,297.8h29.5c17.6,0,32.8,6.4,32.8,26.6c0,19.6-15.4,28.1-32.2,28.1h-8.7v25.4h-21.3V297.8z M308.3,335.7
					c8.4,0,12.4-4.2,12.4-11.3c0-7.1-4.7-9.9-12.9-9.9h-7.2v21.2H308.3z"/>
			</g>
			<g>
				<path d="M255.9,103.2l2.9-6.4l-17.4-16.7L235,83c-24.6,11.2-52.8,11.2-77.3,0l-6.4-2.9L135,96.6l2.9,6.4
					c11.2,24.5,11.2,52.7,0,77.3l-2.9,6.4l16.8,16.5l6.4-2.9c24.6-11.2,52.8-11.2,77.3,0l6.4,2.9l16.9-16.3l-2.9-6.4
					C244.7,155.9,244.7,127.7,255.9,103.2z M217.3,153.3l-12.7,7.3l-12.7,7.3c-9,5.2-20.2-1.3-20.2-11.7v-14.7V127
					c0-10.4,11.2-16.9,20.2-11.7l12.7,7.3l12.7,7.3C226.3,135.1,226.3,148.1,217.3,153.3z"/>
				<g>
					<circle cx="275.6" cy="61.5" r="18.5"/>
					<path class="st5" d="M250.5,23.6c-17.3,17.4-17.2,45.6,0.2,62.9s45.6,17.2,62.9-0.2"/>
					<circle cx="276.4" cy="221.7" r="18.5"/>
					<path class="st5" d="M251.6,259.7c-17.4-17.3-17.5-45.5-0.2-62.9s45.5-17.5,62.9-0.2"/>
					<circle cx="115.3" cy="61.5" r="18.5"/>
					<path class="st5" d="M140.1,23.5c17.4,17.3,17.5,45.5,0.2,62.9s-45.5,17.5-62.9,0.2"/>
					<circle cx="115.3" cy="221.7" r="18.5"/>
					<path class="st5" d="M140.4,259.6c17.3-17.4,17.2-45.6-0.2-62.9s-45.6-17.2-62.9,0.2"/>
				</g>
			</g>
		</g>
	</g>
</g>
<g id="colorido" class="st0">
	<g id="C_00000061449294871176967190000002051046276863536810_" class="st2">
		<g>
			<path d="M-344.7,181.8h30.8l-33.5-109.1h-35.2l-33.5,109.1h29.8l5.5-23.1h30.7L-344.7,181.8z M-375.6,136.3l1.8-7.6
				c2.7-10.4,5.4-23.5,7.8-34.6h0.7c2.7,10.9,5.4,24.2,8.1,34.6l1.8,7.6H-375.6z"/>
			<path d="M-242,181.8h30.8l-33.5-109.1h-35.2l-33.5,109.1h29.8l5.5-23.1h30.7L-242,181.8z M-272.8,136.3l1.8-7.6
				c2.7-10.4,5.4-23.5,7.8-34.6h0.7c2.7,10.9,5.4,24.2,8.1,34.6l1.8,7.6H-272.8z"/>
			<path d="M-222,72.7h30.8l11.5,47.7c3,11.6,5.1,22.8,8.1,34.6h0.7c3-11.7,5.2-23,8.1-34.6l11.2-47.7h29.8l-32.5,109.1h-35.2
				L-222,72.7z"/>
			<path d="M-113.1,72.7h40.2c24,0,44.6,8.7,44.6,36.2c0,26.7-21,38.2-44,38.2H-84v34.6h-29.1V72.7z M-73.5,124.4
				c11.5,0,16.9-5.7,16.9-15.4S-63,95.6-74.2,95.6H-84v28.9L-73.5,124.4L-73.5,124.4z"/>
		</g>
		<g>
			<g>
				<g>
					<g>
						<defs>
							<path id="SVGID_1_" d="M-509.6,97.7l2.9-6.4l-17.4-16.7l-6.4,2.9c-24.5,11.2-52.8,11.2-77.3,0l-6.4-2.9l-16.3,16.5l2.9,6.4
								c11.2,24.5,11.2,52.7,0,77.3l-2.9,6.4l16.8,16.5l6.4-2.9c24.5-11.2,52.8-11.2,77.3,0l6.4,2.9l16.9-16.3l-2.9-6.4
								C-520.8,150.4-520.8,122.2-509.6,97.7z M-548.1,147.8l-12.7,7.3l-12.7,7.3c-9,5.2-20.2-1.3-20.2-11.7v-14.7v-14.7
								c0-10.4,11.2-16.9,20.2-11.7l12.7,7.3l12.7,7.3C-539.1,129.6-539.1,142.6-548.1,147.8z"/>
						</defs>
						<clipPath id="SVGID_00000134949839578152506610000018201818398148249500_">
							<use xlink:href="#SVGID_1_"  style="overflow:visible;"/>
						</clipPath>
					</g>
				</g>
				<path d="M-525.9,85.4l8.4,8l-0.2,0.5c-12.3,26.9-12.3,57.8,0,84.8l0.3,0.6l-7.9,7.6l-0.8-0.4c-13.4-6.1-27.7-9.2-42.4-9.2
					s-29,3.1-42.4,9.2l-0.7,0.3l-7.9-7.8l0.3-0.6c12.3-26.9,12.3-57.8,0-84.8l-0.3-0.7l7.5-7.6l0.6,0.3c13.4,6.1,27.7,9.2,42.4,9.2
					c14.7,0,29-3.1,42.4-9.2L-525.9,85.4 M-580.2,173.3c3.9,0,7.8-1.1,11.2-3l12.7-7.3l12.7-7.3c7-4.1,11.2-11.3,11.2-19.5
					s-4.2-15.4-11.2-19.5l-12.7-7.3L-569,102c-3.4-2-7.3-3-11.2-3c-12.4,0-22.5,10.1-22.5,22.5v14.7v14.7
					C-602.7,163.2-592.6,173.3-580.2,173.3 M-524.1,74.6l-6.4,2.9c-12.3,5.6-25.5,8.4-38.7,8.4s-26.4-2.8-38.7-8.4l-6.4-2.9
					l-16.3,16.5l2.9,6.4c11.2,24.5,11.2,52.7,0,77.3l-2.9,6.4l16.8,16.5l6.4-2.9c12.3-5.6,25.5-8.4,38.7-8.4s26.4,2.8,38.7,8.4
					l6.4,2.9l16.9-16.3l-2.9-6.4c-11.2-24.6-11.2-52.8,0-77.3l2.9-6.4L-524.1,74.6L-524.1,74.6z M-580.2,164.3
					c-7,0-13.5-5.6-13.5-13.5v-14.7v-14.7c0-7.9,6.5-13.5,13.5-13.5c2.2,0,4.5,0.6,6.7,1.8l12.7,7.3l12.7,7.3c9,5.2,9,18.2,0,23.4
					l-12.7,7.3l-12.7,7.3C-575.7,163.7-578,164.3-580.2,164.3L-580.2,164.3z"/>
			</g>
			<g>
				<circle cx="-489.9" cy="56" r="18.5"/>
				<path class="st5" d="M-514.9,18.1c-17.3,17.4-17.2,45.6,0.2,62.9c17.4,17.3,45.6,17.2,62.9-0.2"/>
				<circle cx="-489" cy="216.2" r="18.5"/>
				<path class="st5" d="M-513.8,254.2c-17.4-17.3-17.5-45.5-0.2-62.9s45.5-17.5,62.9-0.2"/>
				<circle cx="-650.1" cy="56" r="18.5"/>
				<path class="st5" d="M-625.3,18c17.4,17.3,17.5,45.5,0.2,62.9S-670.6,98.4-688,81"/>
				<circle cx="-650.1" cy="216.2" r="18.5"/>
				<path class="st5" d="M-625.1,254.1c17.3-17.4,17.2-45.6-0.2-62.9s-45.6-17.2-62.9,0.2"/>
			</g>
		</g>
	</g>
	<g id="R_00000015336121255764727210000017421298551673232262_" class="st2">
		<g>
			<g>
				<path d="M109.3,377.9h22.6l-24.6-80H81.5l-24.6,80h21.8l4-17h22.5L109.3,377.9z M86.7,344.5L88,339c2-7.6,4-17.2,5.7-25.4h0.5
					c2,8,4,17.7,5.9,25.4l1.3,5.5H86.7z"/>
				<path d="M184.7,377.9h22.6l-24.6-80h-25.8l-24.6,80h21.8l4-17h22.5L184.7,377.9z M162.1,344.5l1.3-5.5c2-7.6,4-17.2,5.7-25.4
					h0.5c2,8,4,17.7,5.9,25.4l1.3,5.5H162.1z"/>
				<path d="M199.4,297.9H222l8.4,35c2.2,8.5,3.7,16.7,5.9,25.4h0.5c2.2-8.6,3.9-16.9,5.9-25.4l8.2-35h21.8l-23.8,80h-25.8
					L199.4,297.9z"/>
				<path d="M279.3,297.9h29.5c17.6,0,32.8,6.4,32.8,26.6c0,19.6-15.4,28.1-32.2,28.1h-8.7v25.4h-21.3V297.9z M308.3,335.8
					c8.4,0,12.4-4.2,12.4-11.3s-4.7-9.9-12.9-9.9h-7.2v21.2H308.3z"/>
			</g>
			<g>
				<g>
					<g>
						<g>
							<defs>
								<path id="SVGID_00000158724436654076239620000000353763587868617382_" d="M255.9,103.1l2.9-6.4L241.3,80l-6.4,2.9
									c-24.6,11.2-52.8,11.2-77.3,0l-6.4-2.9L135,96.5l2.9,6.4c11.2,24.6,11.2,52.8,0,77.3l-2.9,6.4l16.8,16.5l6.4-2.9
									c24.6-11.2,52.8-11.2,77.3,0l6.4,2.9l16.9-16.3l-2.9-6.4C244.7,155.8,244.7,127.6,255.9,103.1z M217.3,153.2l-12.7,7.3
									l-12.7,7.3c-9,5.2-20.2-1.3-20.2-11.7v-14.7v-14.7c0-10.4,11.2-16.9,20.2-11.7l12.7,7.3l12.7,7.3
									C226.3,135,226.3,148,217.3,153.2z"/>
							</defs>
							<clipPath id="SVGID_00000042696831068593000700000009032594024874590633_">
								<use xlink:href="#SVGID_00000158724436654076239620000000353763587868617382_"  style="overflow:visible;"/>
							</clipPath>
						</g>
					</g>
					<path d="M239.5,90.7l8.4,8l-0.2,0.5c-12.3,26.9-12.3,57.8,0,84.8l0.3,0.6l-7.9,7.6l-0.8-0.4c-13.4-6.1-27.7-9.2-42.4-9.2
						c-14.7,0-29,3.1-42.4,9.2l-0.7,0.3l-7.9-7.8l0.3-0.6c12.3-26.9,12.3-57.8,0-84.8l-0.3-0.7l7.5-7.6l0.6,0.3
						c13.4,6.1,27.7,9.2,42.4,9.2c14.7,0,29-3.1,42.4-9.2L239.5,90.7 M185.2,178.7c3.9,0,7.8-1.1,11.2-3l12.7-7.3l12.7-7.3
						c7-4.1,11.2-11.3,11.2-19.5s-4.2-15.4-11.2-19.5l-12.7-7.3l-12.7-7.3c-3.4-2-7.3-3-11.2-3c-12.4,0-22.5,10.1-22.5,22.5v14.7
						v14.7C162.7,168.6,172.8,178.7,185.2,178.7 M241.3,80l-6.4,2.9c-12.3,5.6-25.5,8.4-38.6,8.4s-26.4-2.8-38.6-8.4l-6.4-2.9
						L135,96.5l2.9,6.4c11.2,24.6,11.2,52.8,0,77.3l-2.9,6.4l16.8,16.5l6.4-2.9c12.3-5.6,25.5-8.4,38.6-8.4s26.4,2.8,38.6,8.4
						l6.4,2.9l16.9-16.3l-2.9-6.4c-11.2-24.6-11.2-52.8,0-77.3l2.9-6.4L241.3,80L241.3,80z M185.2,169.7c-7,0-13.5-5.6-13.5-13.5
						v-14.7v-14.7c0-7.9,6.5-13.5,13.5-13.5c2.2,0,4.6,0.6,6.7,1.8l12.7,7.3l12.7,7.3c9,5.2,9,18.2,0,23.4l-12.7,7.3l-12.7,7.3
						C189.8,169.1,187.5,169.7,185.2,169.7L185.2,169.7z"/>
				</g>
				<g>
					<circle cx="275.6" cy="61.3" r="18.5"/>
					<path class="st5" d="M250.5,23.4c-17.3,17.4-17.2,45.6,0.2,62.9s45.6,17.2,62.9-0.2"/>
					<circle cx="276.4" cy="221.6" r="18.5"/>
					<path class="st5" d="M251.6,259.6c-17.4-17.3-17.5-45.5-0.2-62.9s45.5-17.5,62.9-0.2"/>
					<circle cx="115.3" cy="61.3" r="18.5"/>
					<path class="st5" d="M140.1,23.4c17.4,17.3,17.5,45.5,0.2,62.9s-45.5,17.5-62.9,0.2"/>
					<circle cx="115.3" cy="221.6" r="18.5"/>
					<path class="st5" d="M140.4,259.5c17.3-17.4,17.2-45.6-0.2-62.9s-45.6-17.2-62.9,0.2"/>
				</g>
			</g>
		</g>
	</g>
</g>
<g id="MEDIDAS" class="st0">
	<rect x="-854.8" y="557.9" class="st6" width="455.5" height="28.9"/>
	<rect x="-854.9" y="102.2" class="st6" width="28.9" height="455.5"/>
</g>
<g id="Camada_2">
	
		<rect id="bg_00000141444352011759583950000015344942224483783824_" x="-1559.1" y="-1171.7" class="st7" width="1397.2" height="596.2"/>
	<g class="st0">
		<g class="st2">
			<path class="st3" d="M-1125.5-828.1h30.8l-33.5-109h-35.2l-33.5,109h29.8l5.5-23.1h30.7L-1125.5-828.1z M-1156.4-873.5l1.8-7.5
				c2.7-10.4,5.4-23.5,7.8-34.6h0.7c2.7,10.9,5.4,24.2,8.1,34.6l1.8,7.5H-1156.4z"/>
			<path class="st3" d="M-1022.8-828.1h30.8l-33.5-109h-35.2l-33.5,109h29.8l5.5-23.1h30.7L-1022.8-828.1z M-1053.6-873.5l1.8-7.5
				c2.7-10.4,5.4-23.5,7.8-34.6h0.7c2.7,10.9,5.4,24.2,8.1,34.6l1.8,7.5H-1053.6z"/>
			<path class="st3" d="M-1002.7-937.1h30.8l11.5,47.7c3,11.6,5.1,22.8,8.1,34.6h0.7c3-11.7,5.2-23,8.1-34.6l11.2-47.7h29.8
				l-32.5,109h-35.2L-1002.7-937.1z"/>
			<path class="st3" d="M-893.9-937.1h40.2c24,0,44.6,8.7,44.6,36.2c0,26.7-21,38.2-44,38.2h-11.8v34.6h-29.1
				C-893.9-828.1-893.9-937.1-893.9-937.1z M-854.3-885.5c11.5,0,16.9-5.7,16.9-15.4c0-9.7-6.4-13.4-17.6-13.4h-9.8v28.9
				L-854.3-885.5L-854.3-885.5z"/>
		</g>
		<g class="st2">
			<path class="st3" d="M-1291.4-912.2l2.9-6.4l-17.4-16.7l-6.4,2.9c-24.6,11.2-52.8,11.2-77.3,0l-6.4-2.9l-16.3,16.5l2.9,6.4
				c11.2,24.6,11.2,52.8,0,77.3l-2.9,6.4l16.8,16.5l6.4-2.9c24.5-11.2,52.8-11.2,77.3,0l6.4,2.9l16.9-16.3l-2.9-6.4
				C-1302.6-859.4-1302.6-887.6-1291.4-912.2z M-1329.9-862.1l-12.7,7.3l-12.7,7.3c-9,5.2-20.2-1.3-20.2-11.7v-14.7v-14.7
				c0-10.4,11.2-16.9,20.2-11.7l12.7,7.3l12.7,7.3C-1320.9-880.2-1320.9-867.3-1329.9-862.1z"/>
			<g>
				<circle class="st3" cx="-1271.7" cy="-953.9" r="18.5"/>
				<circle class="st3" cx="-1270.8" cy="-793.7" r="18.5"/>
				<circle class="st3" cx="-1431.9" cy="-953.9" r="18.5"/>
				<circle class="st3" cx="-1431.9" cy="-793.7" r="18.5"/>
			</g>
			<g>
				<path class="st4" d="M-1296.7-991.8c-17.3,17.4-17.2,45.6,0.2,62.9c17.4,17.3,45.6,17.2,62.9-0.2"/>
				<path class="st4" d="M-1295.6-755.7c-17.4-17.3-17.5-45.5-0.2-62.9c17.3-17.4,45.5-17.5,62.9-0.2"/>
				<path class="st4" d="M-1407.1-991.9c17.4,17.3,17.5,45.5,0.2,62.9c-17.3,17.4-45.5,17.5-62.9,0.2"/>
				<path class="st4" d="M-1406.9-755.7c17.3-17.4,17.2-45.6-0.2-62.9c-17.4-17.3-45.6-17.2-62.9,0.2"/>
			</g>
		</g>
	</g>
	<g>
		<g>
			<path class="st3" d="M260.6,162.7l2.9-6.4l-17.4-16.7l-6.4,2.9c-24.6,11.2-52.8,11.2-77.3,0l-6.4-2.9l-16.3,16.5l2.9,6.4
				c11.2,24.6,11.2,52.8,0,77.3l-2.9,6.4l16.8,16.5l6.4-2.9c24.6-11.2,52.8-11.2,77.3,0l6.4,2.9l16.9-16.3l-2.9-6.4
				C249.4,215.5,249.4,187.3,260.6,162.7z M222.1,212.9l-12.7,7.3l-12.7,7.3c-9,5.2-20.2-1.3-20.2-11.7v-14.7v-14.7
				c0-10.4,11.2-16.9,20.2-11.7l12.7,7.3l12.7,7.3C231.1,194.7,231.1,207.7,222.1,212.9z"/>
		</g>
		<g>
			<g>
				<circle class="st3" cx="280.3" cy="121" r="18.5"/>
			</g>
			<g>
				<circle class="st3" cx="281.2" cy="281.3" r="18.5"/>
			</g>
			<g>
				<circle class="st3" cx="120.1" cy="121" r="18.5"/>
			</g>
			<g>
				<circle class="st3" cx="120.1" cy="281.3" r="18.5"/>
			</g>
		</g>
		<g>
			<g>
				<path class="st3" d="M286.8,164.9c-12.9,0-25.8-4.9-35.6-14.7c-9.6-9.5-14.8-22.2-14.9-35.6c0-13.5,5.2-26.2,14.7-35.7
					c2.3-2.4,6.1-2.4,8.5,0c2.3,2.3,2.4,6.1,0,8.5c-15,15-14.9,39.4,0.1,54.4c15,15,39.4,14.9,54.4-0.1c2.3-2.4,6.1-2.4,8.5,0
					c2.3,2.3,2.4,6.1,0,8.5C312.7,160,299.8,164.9,286.8,164.9z"/>
			</g>
			<g>
				<path class="st3" d="M256.4,325.3c-1.5,0-3.1-0.6-4.2-1.7c-9.6-9.5-14.8-22.2-14.9-35.6c0-13.5,5.2-26.2,14.7-35.7
					c9.5-9.6,22.2-14.8,35.6-14.9c0,0,0.1,0,0.1,0c13.4,0,26.1,5.2,35.6,14.7c2.3,2.3,2.4,6.1,0,8.5s-6.1,2.4-8.5,0
					c-15-15-39.4-14.9-54.4,0.1c-7.2,7.3-11.2,17-11.2,27.2c0,10.3,4.1,19.9,11.3,27.2c2.3,2.3,2.4,6.1,0,8.5
					C259.5,324.7,257.9,325.3,256.4,325.3z"/>
			</g>
			<g>
				<path class="st3" d="M113.5,165c-13.4,0-26.1-5.2-35.6-14.7c-2.3-2.3-2.4-6.1,0-8.5c2.3-2.4,6.1-2.4,8.5,0
					c15,15,39.4,14.9,54.4-0.1c7.2-7.3,11.2-17,11.2-27.2s-4.1-19.9-11.3-27.2c-2.3-2.3-2.4-6.1,0-8.5c2.3-2.4,6.1-2.4,8.5,0
					c9.6,9.5,14.8,22.2,14.9,35.6c0,13.5-5.2,26.2-14.7,35.7c-9.5,9.6-22.2,14.8-35.6,14.9C113.6,165,113.6,165,113.5,165z"/>
			</g>
			<g>
				<path class="st3" d="M145.1,325.2c-1.5,0-3.1-0.6-4.2-1.7c-2.3-2.3-2.4-6.1,0-8.5c7.2-7.3,11.2-17,11.2-27.2
					s-4.1-19.9-11.3-27.2c-15-15-39.4-14.9-54.4,0.1c-2.3,2.3-6.1,2.4-8.5,0c-2.3-2.3-2.4-6.1,0-8.5c19.6-19.7,51.6-19.8,71.4-0.2
					c9.6,9.5,14.8,22.2,14.9,35.6c0,13.5-5.2,26.2-14.7,35.7C148.2,324.6,146.7,325.2,145.1,325.2z"/>
			</g>
		</g>
	</g>
</g>
</svg>
